<svg width="25" height="25" viewBox="0 0 25 25" fill="none" xmlns="http://www.w3.org/2000/svg">
<path d="M19.7917 4.16666H5.20834C4.37953 4.16666 3.58468 4.4959 2.99863 5.08195C2.41258 5.668 2.08334 6.46286 2.08334 7.29166V17.7083C2.08334 18.5371 2.41258 19.332 2.99863 19.918C3.58468 20.5041 4.37953 20.8333 5.20834 20.8333H19.7917C20.6205 20.8333 21.4153 20.5041 22.0014 19.918C22.5874 19.332 22.9167 18.5371 22.9167 17.7083V7.29166C22.9167 6.46286 22.5874 5.668 22.0014 5.08195C21.4153 4.4959 20.6205 4.16666 19.7917 4.16666V4.16666ZM5.20834 6.24999H19.7917C20.0679 6.24999 20.3329 6.35974 20.5282 6.55509C20.7236 6.75044 20.8333 7.01539 20.8333 7.29166L12.5 12.375L4.16667 7.29166C4.16667 7.01539 4.27642 6.75044 4.47177 6.55509C4.66712 6.35974 4.93207 6.24999 5.20834 6.24999V6.24999ZM20.8333 17.7083C20.8333 17.9846 20.7236 18.2495 20.5282 18.4449C20.3329 18.6402 20.0679 18.75 19.7917 18.75H5.20834C4.93207 18.75 4.66712 18.6402 4.47177 18.4449C4.27642 18.2495 4.16667 17.9846 4.16667 17.7083V9.66666L11.9583 14.4271C12.1167 14.5185 12.2963 14.5666 12.4792 14.5666C12.662 14.5666 12.8416 14.5185 13 14.4271L20.8333 9.66666V17.7083Z" fill="black"/>
</svg>
