<svg width="25" height="25" viewBox="0 0 25 25" fill="none" xmlns="http://www.w3.org/2000/svg">
<path d="M20.25 13.5417C20.0208 13.5417 19.7812 13.4687 19.5521 13.4167C19.088 13.3144 18.6319 13.1786 18.1875 13.0104C17.7043 12.8346 17.1731 12.8437 16.6962 13.036C16.2192 13.2283 15.8303 13.5902 15.6042 14.0521L15.375 14.5208C14.3604 13.9564 13.4281 13.2554 12.6042 12.4375C11.7862 11.6136 11.0852 10.6812 10.5208 9.66666L10.9583 9.37499C11.4202 9.14887 11.7821 8.75992 11.9744 8.28301C12.1667 7.80609 12.1758 7.2749 12 6.79166C11.8346 6.34627 11.6989 5.89041 11.5937 5.42708C11.5417 5.19791 11.5 4.95833 11.4687 4.71875C11.3423 3.98502 10.9579 3.32056 10.385 2.84504C9.8121 2.36951 9.08822 2.11417 8.34375 2.12499H5.21875C4.76982 2.12078 4.32526 2.21334 3.91532 2.39638C3.50538 2.57942 3.1397 2.84864 2.84315 3.18571C2.54661 3.52277 2.32618 3.91978 2.19686 4.3497C2.06754 4.77961 2.03237 5.23235 2.09375 5.67708C2.64868 10.041 4.64169 14.0957 7.75797 17.2007C10.8742 20.3056 14.9362 22.2839 19.3021 22.8229H19.6979C20.4661 22.824 21.2077 22.5422 21.7812 22.0312C22.1108 21.7365 22.374 21.3752 22.5536 20.9712C22.7332 20.5671 22.825 20.1296 22.8229 19.6875V16.5625C22.8102 15.8389 22.5467 15.1422 22.0774 14.5913C21.6082 14.0404 20.9623 13.6694 20.25 13.5417V13.5417ZM20.7708 19.7917C20.7706 19.9396 20.739 20.0857 20.6779 20.2204C20.6168 20.3551 20.5278 20.4753 20.4167 20.5729C20.3006 20.674 20.1646 20.7494 20.0174 20.7943C19.8702 20.8391 19.7152 20.8524 19.5625 20.8333C15.6614 20.3331 12.0377 18.5484 9.26324 15.7607C6.48874 12.973 4.72126 9.34097 4.23958 5.43749C4.223 5.28491 4.23753 5.13055 4.28229 4.98374C4.32705 4.83692 4.40111 4.70071 4.5 4.58333C4.59761 4.47222 4.71777 4.38316 4.85248 4.3221C4.98718 4.26103 5.13335 4.22935 5.28125 4.22916H8.40625C8.64848 4.22377 8.88502 4.30299 9.07515 4.45319C9.26527 4.60339 9.39709 4.81517 9.44791 5.05208C9.48958 5.3368 9.54166 5.61805 9.60416 5.89583C9.7245 6.44494 9.88464 6.98456 10.0833 7.51041L8.625 8.18749C8.50031 8.2447 8.38815 8.32598 8.29495 8.42666C8.20176 8.52733 8.12937 8.64543 8.08195 8.77416C8.03452 8.90289 8.01299 9.03971 8.01859 9.17679C8.02419 9.31386 8.05681 9.44848 8.11458 9.57291C9.61375 12.7841 12.195 15.3654 15.4062 16.8646C15.6599 16.9688 15.9443 16.9688 16.1979 16.8646C16.3278 16.8181 16.4472 16.7463 16.5491 16.6533C16.6511 16.5603 16.7335 16.448 16.7917 16.3229L17.4375 14.8646C17.976 15.0572 18.5256 15.2172 19.0833 15.3437C19.3611 15.4062 19.6424 15.4583 19.9271 15.5C20.164 15.5508 20.3758 15.6826 20.526 15.8728C20.6762 16.0629 20.7554 16.2994 20.75 16.5417L20.7708 19.7917Z" fill="black"/>
</svg>
