<svg width="30" height="30" viewBox="0 0 30 30" fill="none" xmlns="http://www.w3.org/2000/svg">
<path d="M18.1125 13.575C18.5311 12.9987 18.7823 12.3178 18.8381 11.6077C18.894 10.8976 18.7524 10.1859 18.429 9.55124C18.1055 8.91658 17.6129 8.38371 17.0056 8.01154C16.3982 7.63938 15.6998 7.44241 14.9875 7.44241C14.2752 7.44241 13.5768 7.63938 12.9694 8.01154C12.3621 8.38371 11.8695 8.91658 11.5461 9.55124C11.2227 10.1859 11.081 10.8976 11.1369 11.6077C11.1927 12.3178 11.4439 12.9987 11.8625 13.575C11.3315 13.9134 10.8587 14.3355 10.4625 14.825C10.3591 14.9588 10.283 15.1116 10.2387 15.2748C10.1943 15.438 10.1826 15.6083 10.204 15.776C10.2255 15.9437 10.2798 16.1056 10.3638 16.2523C10.4479 16.3991 10.56 16.5278 10.6938 16.6312C10.8275 16.7347 10.9804 16.8107 11.1436 16.8551C11.3067 16.8994 11.477 16.9112 11.6448 16.8897C11.8125 16.8682 11.9744 16.8139 12.1211 16.7299C12.2678 16.6459 12.3966 16.5338 12.5 16.4C12.8053 16.012 13.1943 15.698 13.6381 15.4815C14.0818 15.265 14.5688 15.1517 15.0625 15.15V15.15C15.5562 15.1517 16.0432 15.265 16.4869 15.4815C16.9307 15.698 17.3197 16.012 17.625 16.4C17.7427 16.545 17.8913 16.6618 18.06 16.7419C18.2287 16.8219 18.4133 16.8631 18.6 16.8625C18.8343 16.8614 19.0636 16.7945 19.2618 16.6694C19.4599 16.5442 19.6189 16.3659 19.7205 16.1548C19.8222 15.9436 19.8624 15.7082 19.8367 15.4753C19.811 15.2423 19.7203 15.0213 19.575 14.8375C19.161 14.3383 18.6667 13.9117 18.1125 13.575V13.575ZM15 12.6625C14.7327 12.6623 14.4713 12.5835 14.2485 12.4359C14.0256 12.2883 13.8511 12.0784 13.7467 11.8323C13.6423 11.5862 13.6125 11.3149 13.6612 11.052C13.7098 10.7892 13.8347 10.5465 14.0203 10.3541C14.2059 10.1617 14.4439 10.0281 14.7049 9.97004C14.9658 9.91196 15.238 9.93191 15.4877 10.0274C15.7374 10.1229 15.9534 10.2897 16.109 10.5071C16.2645 10.7245 16.3527 10.9829 16.3625 11.25C16.3692 11.4331 16.339 11.6156 16.2735 11.7868C16.208 11.9579 16.1087 12.114 15.9816 12.2459C15.8544 12.3778 15.7019 12.4826 15.5332 12.5542C15.3646 12.6258 15.1832 12.6626 15 12.6625V12.6625ZM25.575 12.0375C25.3995 10.2111 24.754 8.46134 23.7015 6.95851C22.6489 5.45568 21.2251 4.25103 19.5687 3.46186C17.9124 2.67268 16.0799 2.32589 14.2496 2.45524C12.4194 2.5846 10.6539 3.18569 9.125 4.19999C7.8115 5.0783 6.70882 6.23661 5.89618 7.59173C5.08355 8.94684 4.58112 10.4651 4.425 12.0375C4.27186 13.5996 4.46835 15.1761 5.00022 16.6528C5.53209 18.1295 6.386 19.4693 7.5 20.575L14.125 27.2125C14.2412 27.3297 14.3795 27.4226 14.5318 27.4861C14.6841 27.5496 14.8475 27.5822 15.0125 27.5822C15.1775 27.5822 15.3409 27.5496 15.4932 27.4861C15.6455 27.4226 15.7838 27.3297 15.9 27.2125L22.5 20.575C23.614 19.4693 24.4679 18.1295 24.9998 16.6528C25.5317 15.1761 25.7282 13.5996 25.575 12.0375V12.0375ZM20.75 18.8125L15 24.5625L9.25 18.8125C8.40262 17.9651 7.75351 16.9404 7.34934 15.8122C6.94517 14.684 6.79598 13.4802 6.9125 12.2875C7.02978 11.0764 7.41471 9.90644 8.03947 8.86229C8.66423 7.81815 9.5132 6.92587 10.525 6.24999C11.8512 5.36903 13.4079 4.89911 15 4.89911C16.5921 4.89911 18.1488 5.36903 19.475 6.24999C20.4837 6.92326 21.3308 7.81159 21.9554 8.85116C22.5801 9.89073 22.9667 11.0557 23.0875 12.2625C23.2078 13.4593 23.0605 14.6678 22.6562 15.8007C22.252 16.9335 21.6008 17.9623 20.75 18.8125V18.8125Z" fill="black"/>
</svg>
