<svg width="32" height="32" viewBox="0 0 32 32" fill="none" xmlns="http://www.w3.org/2000/svg">
<path d="M16 2.66666C13.414 2.67157 10.8852 3.4284 8.72163 4.84497C6.55809 6.26154 4.85319 8.27671 3.81458 10.645C2.77598 13.0133 2.4485 15.6325 2.87203 18.1837C3.29556 20.7348 4.45183 23.1077 6.19999 25.0133V25.0133C7.44856 26.3667 8.96392 27.4468 10.6506 28.1856C12.3372 28.9244 14.1586 29.3058 16 29.3058C17.8414 29.3058 19.6627 28.9244 21.3494 28.1856C23.0361 27.4468 24.5514 26.3667 25.8 25.0133V25.0133C27.5482 23.1077 28.7044 20.7348 29.128 18.1837C29.5515 15.6325 29.224 13.0133 28.1854 10.645C27.1468 8.27671 25.4419 6.26154 23.2784 4.84497C21.1148 3.4284 18.586 2.67157 16 2.66666V2.66666ZM16 26.6667C13.2379 26.6625 10.5852 25.587 8.59999 23.6667C9.20272 22.1994 10.228 20.9444 11.5457 20.0612C12.8633 19.178 14.4137 18.7064 16 18.7064C17.5862 18.7064 19.1367 19.178 20.4543 20.0612C21.7719 20.9444 22.7973 22.1994 23.4 23.6667C21.4148 25.587 18.762 26.6625 16 26.6667ZM13.3333 13.3333C13.3333 12.8059 13.4897 12.2903 13.7827 11.8518C14.0758 11.4133 14.4922 11.0715 14.9795 10.8696C15.4668 10.6678 16.003 10.615 16.5202 10.7179C17.0375 10.8208 17.5127 11.0748 17.8856 11.4477C18.2586 11.8206 18.5125 12.2958 18.6154 12.8131C18.7183 13.3304 18.6655 13.8665 18.4637 14.3538C18.2618 14.8411 17.92 15.2576 17.4815 15.5506C17.043 15.8436 16.5274 16 16 16C15.2927 16 14.6145 15.719 14.1144 15.2189C13.6143 14.7188 13.3333 14.0406 13.3333 13.3333ZM25.2133 21.3333C24.022 19.2957 22.1885 17.7107 20 16.8267C20.6789 16.0569 21.1212 15.1075 21.274 14.0926C21.4267 13.0776 21.2833 12.0401 20.861 11.1047C20.4387 10.1692 19.7554 9.3754 18.8932 8.81861C18.031 8.26182 17.0264 7.96566 16 7.96566C14.9736 7.96566 13.969 8.26182 13.1068 8.81861C12.2445 9.3754 11.5613 10.1692 11.139 11.1047C10.7167 12.0401 10.5733 13.0776 10.726 14.0926C10.8788 15.1075 11.3211 16.0569 12 16.8267C9.81146 17.7107 7.97795 19.2957 6.78666 21.3333C5.83725 19.7161 5.33562 17.8753 5.33333 16C5.33333 13.171 6.45713 10.4579 8.45752 8.45752C10.4579 6.45713 13.171 5.33332 16 5.33332C18.829 5.33332 21.5421 6.45713 23.5425 8.45752C25.5429 10.4579 26.6667 13.171 26.6667 16C26.6644 17.8753 26.1627 19.7161 25.2133 21.3333V21.3333Z" fill="#EA394E"/>
</svg>
