<svg width="34" height="34" viewBox="0 0 34 34" fill="none" xmlns="http://www.w3.org/2000/svg">
<path d="M30.3611 14.7646L28.9682 13.9986L16.4325 7.03429H16.2793C16.1939 6.99818 16.1053 6.9702 16.0146 6.95071H15.75H15.4993C15.4041 6.97021 15.3109 6.99818 15.2207 7.03429H15.0675L2.53179 13.9986C2.31743 14.1201 2.13914 14.2962 2.01509 14.5091C1.89104 14.722 1.82568 14.964 1.82568 15.2104C1.82568 15.4567 1.89104 15.6987 2.01509 15.9116C2.13914 16.1245 2.31743 16.3007 2.53179 16.4221L6 18.3443V24.9464C6 26.0547 6.44025 27.1175 7.22388 27.9011C8.00751 28.6848 9.07035 29.125 10.1786 29.125H21.3214C22.4297 29.125 23.4925 28.6848 24.2761 27.9011C25.0598 27.1175 25.5 26.0547 25.5 24.9464V18.3443L28.2857 16.7843V20.7679C28.2857 21.1373 28.4325 21.4915 28.6937 21.7528C28.9549 22.014 29.3092 22.1607 29.6786 22.1607C30.048 22.1607 30.4023 22.014 30.6635 21.7528C30.9247 21.4915 31.0714 21.1373 31.0714 20.7679V15.9764C31.071 15.7296 31.005 15.4874 30.8802 15.2744C30.7554 15.0615 30.5762 14.8856 30.3611 14.7646ZM22.7143 24.9464C22.7143 25.3158 22.5675 25.6701 22.3063 25.9313C22.0451 26.1925 21.6908 26.3393 21.3214 26.3393H10.1786C9.80917 26.3393 9.45489 26.1925 9.19368 25.9313C8.93247 25.6701 8.78572 25.3158 8.78572 24.9464V19.8904L15.0675 23.3725L15.2764 23.4561H15.4018C15.5174 23.4706 15.6344 23.4706 15.75 23.4561C15.8656 23.4706 15.9826 23.4706 16.0982 23.4561H16.2236C16.2975 23.4405 16.3682 23.4122 16.4325 23.3725L22.7143 19.8904V24.9464ZM15.75 20.5729L6.08358 15.1964L15.75 9.82L25.4164 15.1964L15.75 20.5729Z" fill="#EA394E"/>
</svg>
