<svg xmlns="http://www.w3.org/2000/svg" xmlns:xlink="http://www.w3.org/1999/xlink" width="1600" zoomAndPan="magnify" viewBox="0 0 1200 1199.999942" height="1600" preserveAspectRatio="xMidYMid meet" version="1.0"><defs><clipPath id="id1"><path d="M 0 566.441406 L 269.242188 566.441406 L 269.242188 966 L 0 966 Z M 0 566.441406 " clip-rule="nonzero"/></clipPath><clipPath id="id2"><path d="M 1012.222656 166.441406 L 1200 166.441406 L 1200 566 L 1012.222656 566 Z M 1012.222656 166.441406 " clip-rule="nonzero"/></clipPath></defs><rect x="-120" width="1440" fill="#ffffff" y="-119.999994" height="1439.999931" fill-opacity="1"/><rect x="-120" width="1440" fill="#ffffff" y="-119.999994" height="1439.999931" fill-opacity="1"/><rect x="-120" width="1440" fill="#efefef" y="-119.999994" height="1439.999931" fill-opacity="1"/><g clip-path="url(#id1)"><path fill="#ea394e" d="M 269.234375 872.308594 C 269.234375 923.613281 227.636719 965.207031 176.328125 965.207031 L 122.929688 965.207031 C 71.617188 965.207031 30.023438 923.613281 30.023438 872.308594 L 30.023438 791.132812 L -37.53125 791.132812 C -50.359375 791.132812 -60.757812 780.734375 -60.757812 767.90625 C -60.757812 755.074219 -50.359375 744.679688 -37.53125 744.679688 L 176.328125 744.679688 C 227.636719 744.679688 269.234375 786.269531 269.234375 837.578125 Z M 176.328125 791.132812 L 76.476562 791.132812 L 76.476562 872.308594 C 76.476562 897.957031 97.273438 918.753906 122.929688 918.753906 L 176.328125 918.753906 C 201.984375 918.753906 222.78125 897.957031 222.78125 872.308594 L 222.78125 837.578125 C 222.78125 811.929688 201.984375 791.132812 176.328125 791.132812 Z M 246.011719 572.015625 C 258.839844 572.015625 269.242188 582.414062 269.242188 595.242188 L 269.242188 596.695312 C 269.242188 648.011719 227.644531 689.601562 176.332031 689.601562 L -37.527344 689.601562 C -50.355469 689.601562 -60.753906 679.203125 -60.753906 666.375 C -60.753906 653.546875 -50.355469 643.148438 -37.527344 643.148438 L 32.222656 643.148438 L 32.222656 589.851562 C 32.222656 577.023438 42.621094 566.625 55.449219 566.625 C 68.277344 566.625 78.679688 577.023438 78.679688 589.851562 L 78.679688 643.148438 L 176.332031 643.148438 C 201.988281 643.148438 222.785156 622.351562 222.785156 596.695312 L 222.785156 595.242188 C 222.785156 582.414062 233.183594 572.015625 246.011719 572.015625 Z M 246.011719 572.015625 " fill-opacity="1" fill-rule="evenodd"/></g><g clip-path="url(#id2)"><path fill="#ea394e" d="M 1342.21875 472.308594 C 1342.21875 523.613281 1300.621094 565.207031 1249.308594 565.207031 L 1195.914062 565.207031 C 1144.601562 565.207031 1103.003906 523.613281 1103.003906 472.308594 L 1103.003906 391.132812 L 1035.449219 391.132812 C 1022.621094 391.132812 1012.222656 380.734375 1012.222656 367.90625 C 1012.222656 355.078125 1022.621094 344.679688 1035.449219 344.679688 L 1249.308594 344.679688 C 1300.621094 344.679688 1342.21875 386.269531 1342.21875 437.578125 Z M 1249.308594 391.132812 L 1149.457031 391.132812 L 1149.457031 472.308594 C 1149.457031 497.957031 1170.257812 518.753906 1195.914062 518.753906 L 1249.308594 518.753906 C 1274.964844 518.753906 1295.761719 497.957031 1295.761719 472.308594 L 1295.761719 437.578125 C 1295.761719 411.929688 1274.964844 391.132812 1249.308594 391.132812 Z M 1318.996094 172.015625 C 1331.824219 172.015625 1342.222656 182.414062 1342.222656 195.242188 L 1342.222656 196.695312 C 1342.222656 248.011719 1300.625 289.601562 1249.3125 289.601562 L 1035.457031 289.601562 C 1022.628906 289.601562 1012.226562 279.203125 1012.226562 266.375 C 1012.226562 253.546875 1022.628906 243.148438 1035.457031 243.148438 L 1105.207031 243.148438 L 1105.207031 189.851562 C 1105.207031 177.023438 1115.605469 166.625 1128.433594 166.625 C 1141.261719 166.625 1151.660156 177.023438 1151.660156 189.851562 L 1151.660156 243.148438 L 1249.3125 243.148438 C 1274.96875 243.148438 1295.769531 222.351562 1295.769531 196.695312 L 1295.769531 195.242188 C 1295.769531 182.414062 1306.167969 172.015625 1318.996094 172.015625 Z M 1318.996094 172.015625 " fill-opacity="1" fill-rule="evenodd"/></g></svg>