<svg xmlns="http://www.w3.org/2000/svg" xmlns:xlink="http://www.w3.org/1999/xlink" width="1600" zoomAndPan="magnify" viewBox="0 0 1200 1199.999942" height="1600" preserveAspectRatio="xMidYMid meet" version="1.0"><defs><clipPath id="id1"><path d="M 0 800 L 265.441406 800 L 265.441406 1199 L 0 1199 Z M 0 800 " clip-rule="nonzero"/></clipPath><clipPath id="id2"><path d="M 1012.222656 225.304688 L 1200 225.304688 L 1200 625 L 1012.222656 625 Z M 1012.222656 225.304688 " clip-rule="nonzero"/></clipPath></defs><rect x="-120" width="1440" fill="#ffffff" y="-119.999994" height="1439.999931" fill-opacity="1"/><rect x="-120" width="1440" fill="#ffffff" y="-119.999994" height="1439.999931" fill-opacity="1"/><rect x="-120" width="1440" fill="#efefef" y="-119.999994" height="1439.999931" fill-opacity="1"/><g clip-path="url(#id1)"><path fill="#ea394e" d="M 265.4375 1105.867188 C 265.4375 1157.171875 223.839844 1198.765625 172.527344 1198.765625 L 119.132812 1198.765625 C 67.820312 1198.765625 26.222656 1157.171875 26.222656 1105.867188 L 26.222656 1024.6875 L -41.328125 1024.6875 C -54.15625 1024.6875 -64.558594 1014.292969 -64.558594 1001.460938 C -64.558594 988.632812 -54.15625 978.234375 -41.328125 978.234375 L 172.527344 978.234375 C 223.839844 978.234375 265.4375 1019.828125 265.4375 1071.136719 Z M 172.527344 1024.6875 L 72.679688 1024.6875 L 72.679688 1105.867188 C 72.679688 1131.515625 93.476562 1152.3125 119.132812 1152.3125 L 172.527344 1152.3125 C 198.183594 1152.3125 218.984375 1131.515625 218.984375 1105.867188 L 218.984375 1071.136719 C 218.984375 1045.484375 198.183594 1024.6875 172.527344 1024.6875 Z M 242.214844 805.574219 C 255.042969 805.574219 265.441406 815.972656 265.441406 828.800781 L 265.441406 830.253906 C 265.441406 881.566406 223.847656 923.160156 172.535156 923.160156 L -41.324219 923.160156 C -54.152344 923.160156 -64.550781 912.761719 -64.550781 899.933594 C -64.550781 887.105469 -54.152344 876.707031 -41.324219 876.707031 L 28.425781 876.707031 L 28.425781 823.40625 C 28.425781 810.578125 38.824219 800.179688 51.652344 800.179688 C 64.480469 800.179688 74.882812 810.578125 74.882812 823.40625 L 74.882812 876.707031 L 172.535156 876.707031 C 198.1875 876.707031 218.988281 855.910156 218.988281 830.253906 L 218.988281 828.800781 C 218.988281 815.972656 229.386719 805.574219 242.214844 805.574219 Z M 242.214844 805.574219 " fill-opacity="1" fill-rule="evenodd"/></g><g clip-path="url(#id2)"><path fill="#ea394e" d="M 1342.21875 531.167969 C 1342.21875 582.476562 1300.621094 624.066406 1249.308594 624.066406 L 1195.914062 624.066406 C 1144.601562 624.066406 1103.003906 582.476562 1103.003906 531.167969 L 1103.003906 449.992188 L 1035.449219 449.992188 C 1022.621094 449.992188 1012.222656 439.59375 1012.222656 426.765625 C 1012.222656 413.9375 1022.621094 403.539062 1035.449219 403.539062 L 1249.308594 403.539062 C 1300.621094 403.539062 1342.21875 445.132812 1342.21875 496.4375 Z M 1249.308594 449.992188 L 1149.457031 449.992188 L 1149.457031 531.167969 C 1149.457031 556.820312 1170.257812 577.617188 1195.914062 577.617188 L 1249.308594 577.617188 C 1274.964844 577.617188 1295.761719 556.820312 1295.761719 531.167969 L 1295.761719 496.4375 C 1295.761719 470.789062 1274.964844 449.992188 1249.308594 449.992188 Z M 1318.996094 230.875 C 1331.824219 230.875 1342.222656 241.273438 1342.222656 254.101562 L 1342.222656 255.558594 C 1342.222656 306.871094 1300.625 348.464844 1249.3125 348.464844 L 1035.457031 348.464844 C 1022.628906 348.464844 1012.226562 338.066406 1012.226562 325.238281 C 1012.226562 312.410156 1022.628906 302.011719 1035.457031 302.011719 L 1105.207031 302.011719 L 1105.207031 248.710938 C 1105.207031 235.882812 1115.605469 225.484375 1128.433594 225.484375 C 1141.261719 225.484375 1151.660156 235.882812 1151.660156 248.710938 L 1151.660156 302.011719 L 1249.3125 302.011719 C 1274.96875 302.011719 1295.769531 281.214844 1295.769531 255.558594 L 1295.769531 254.101562 C 1295.769531 241.273438 1306.167969 230.875 1318.996094 230.875 Z M 1318.996094 230.875 " fill-opacity="1" fill-rule="evenodd"/></g></svg>