<svg xmlns="http://www.w3.org/2000/svg" xmlns:xlink="http://www.w3.org/1999/xlink" width="1440" zoomAndPan="magnify" viewBox="0 0 1080 899.99999" height="1200" preserveAspectRatio="xMidYMid meet" version="1.0"><defs><clipPath id="id1"><path d="M 0 647.082031 L 253.855469 647.082031 L 253.855469 900 L 0 900 Z M 0 647.082031 " clip-rule="nonzero"/></clipPath><clipPath id="id2"><path d="M 920.027344 114.480469 L 1080 114.480469 L 1080 474 L 920.027344 474 Z M 920.027344 114.480469 " clip-rule="nonzero"/></clipPath></defs><g clip-path="url(#id1)"><path fill="#ea394e" d="M 253.851562 922.53125 C 253.851562 968.734375 216.414062 1006.191406 170.234375 1006.191406 L 122.175781 1006.191406 C 75.996094 1006.191406 38.558594 968.734375 38.558594 922.53125 L 38.558594 849.429688 L -22.238281 849.429688 C -33.785156 849.429688 -43.144531 840.066406 -43.144531 828.511719 C -43.144531 816.960938 -33.785156 807.597656 -22.242188 807.597656 L 170.234375 807.597656 C 216.414062 807.597656 253.851562 845.050781 253.851562 891.257812 Z M 170.234375 849.429688 L 80.367188 849.429688 L 80.367188 922.53125 C 80.367188 945.628906 99.085938 964.359375 122.175781 964.359375 L 170.234375 964.359375 C 193.324219 964.359375 212.042969 945.628906 212.042969 922.53125 L 212.042969 891.257812 C 212.042969 868.15625 193.324219 849.429688 170.234375 849.429688 Z M 232.949219 652.105469 C 244.496094 652.105469 253.855469 661.472656 253.855469 673.023438 L 253.855469 674.332031 C 253.855469 720.542969 216.417969 758 170.238281 758 L -22.234375 758 C -33.78125 758 -43.140625 748.636719 -43.140625 737.082031 C -43.140625 725.53125 -33.78125 716.167969 -22.234375 716.167969 L 40.539062 716.167969 L 40.539062 668.167969 C 40.539062 656.617188 49.898438 647.25 61.445312 647.25 C 72.988281 647.25 82.347656 656.617188 82.347656 668.167969 L 82.347656 716.167969 L 170.238281 716.167969 C 193.328125 716.167969 212.046875 697.4375 212.046875 674.332031 L 212.046875 673.023438 C 212.046875 661.472656 221.40625 652.105469 232.949219 652.105469 Z M 232.949219 652.105469 " fill-opacity="1" fill-rule="evenodd"/></g><g clip-path="url(#id2)"><path fill="#ea394e" d="M 1217.019531 389.929688 C 1217.019531 436.132812 1179.582031 473.589844 1133.402344 473.589844 L 1085.347656 473.589844 C 1039.164062 473.589844 1001.730469 436.132812 1001.730469 389.929688 L 1001.730469 316.828125 L 940.929688 316.828125 C 929.386719 316.828125 920.027344 307.464844 920.027344 295.910156 C 920.027344 284.359375 929.386719 274.996094 940.929688 274.996094 L 1133.402344 274.996094 C 1179.582031 274.996094 1217.019531 312.449219 1217.019531 358.65625 Z M 1133.402344 316.828125 L 1043.539062 316.828125 L 1043.539062 389.929688 C 1043.539062 413.027344 1062.257812 431.757812 1085.347656 431.757812 L 1133.402344 431.757812 C 1156.492188 431.757812 1175.210938 413.027344 1175.210938 389.929688 L 1175.210938 358.65625 C 1175.210938 335.554688 1156.492188 316.828125 1133.402344 316.828125 Z M 1196.121094 119.503906 C 1207.667969 119.503906 1217.027344 128.871094 1217.027344 140.421875 L 1217.027344 141.730469 C 1217.027344 187.941406 1179.589844 225.398438 1133.40625 225.398438 L 940.933594 225.398438 C 929.390625 225.398438 920.03125 216.035156 920.03125 204.480469 C 920.03125 192.929688 929.390625 183.566406 940.933594 183.566406 L 1003.710938 183.566406 L 1003.710938 135.566406 C 1003.710938 124.015625 1013.070312 114.648438 1024.613281 114.648438 C 1036.160156 114.648438 1045.519531 124.015625 1045.519531 135.566406 L 1045.519531 183.566406 L 1133.40625 183.566406 C 1156.496094 183.566406 1175.214844 164.835938 1175.214844 141.730469 L 1175.214844 140.421875 C 1175.214844 128.871094 1184.574219 119.503906 1196.121094 119.503906 Z M 1196.121094 119.503906 " fill-opacity="1" fill-rule="evenodd"/></g></svg>