<svg xmlns="http://www.w3.org/2000/svg" xmlns:xlink="http://www.w3.org/1999/xlink" width="1440" zoomAndPan="magnify" viewBox="0 0 1080 2183.249974" height="2911" preserveAspectRatio="xMidYMid meet" version="1.0"><defs><clipPath id="id1"><path d="M 0.183594 0 L 1079.8125 0 L 1079.8125 2182.5 L 0.183594 2182.5 Z M 0.183594 0 " clip-rule="nonzero"/></clipPath><clipPath id="id2"><path d="M 0.183594 522.324219 L 249.324219 522.324219 L 249.324219 882 L 0.183594 882 Z M 0.183594 522.324219 " clip-rule="nonzero"/></clipPath><clipPath id="id3"><path d="M 917.78125 162.445312 L 1079.8125 162.445312 L 1079.8125 522 L 917.78125 522 Z M 917.78125 162.445312 " clip-rule="nonzero"/></clipPath><clipPath id="id4"><path d="M 917.78125 911.3125 L 1079.8125 911.3125 L 1079.8125 1271 L 917.78125 1271 Z M 917.78125 911.3125 " clip-rule="nonzero"/></clipPath></defs><g clip-path="url(#id1)"><path fill="#ffffff" d="M 0.183594 0 L 1079.816406 0 L 1079.816406 2189.996094 L 0.183594 2189.996094 Z M 0.183594 0 " fill-opacity="1" fill-rule="nonzero"/><path fill="#ffffff" d="M 0.183594 0 L 1079.816406 0 L 1079.816406 2182.5 L 0.183594 2182.5 Z M 0.183594 0 " fill-opacity="1" fill-rule="nonzero"/><path fill="#efefef" d="M 0.183594 0 L 1079.816406 0 L 1079.816406 2182.5 L 0.183594 2182.5 Z M 0.183594 0 " fill-opacity="1" fill-rule="nonzero"/></g><g clip-path="url(#id2)"><path fill="#ea394e" d="M 249.320312 797.675781 C 249.320312 843.863281 211.894531 881.308594 165.730469 881.308594 L 117.691406 881.308594 C 71.527344 881.308594 34.101562 843.863281 34.101562 797.675781 L 34.101562 724.601562 L -26.675781 724.601562 C -38.214844 724.601562 -47.574219 715.238281 -47.574219 703.691406 C -47.574219 692.140625 -38.214844 682.78125 -26.675781 682.78125 L 165.730469 682.78125 C 211.894531 682.78125 249.320312 720.222656 249.320312 766.414062 Z M 165.730469 724.601562 L 75.898438 724.601562 L 75.898438 797.675781 C 75.898438 820.769531 94.609375 839.488281 117.691406 839.488281 L 165.730469 839.488281 C 188.816406 839.488281 207.527344 820.769531 207.527344 797.675781 L 207.527344 766.414062 C 207.527344 743.320312 188.816406 724.601562 165.730469 724.601562 Z M 228.425781 527.34375 C 239.96875 527.34375 249.324219 536.707031 249.324219 548.253906 L 249.324219 549.5625 C 249.324219 595.757812 211.902344 633.199219 165.734375 633.199219 L -26.671875 633.199219 C -38.210938 633.199219 -47.566406 623.839844 -47.566406 612.292969 C -47.566406 600.742188 -38.210938 591.382812 -26.671875 591.382812 L 36.082031 591.382812 L 36.082031 543.402344 C 36.082031 531.851562 45.4375 522.492188 56.980469 522.492188 C 68.523438 522.492188 77.878906 531.851562 77.878906 543.402344 L 77.878906 591.382812 L 165.734375 591.382812 C 188.816406 591.382812 207.53125 572.660156 207.53125 549.5625 L 207.53125 548.253906 C 207.53125 536.707031 216.886719 527.34375 228.425781 527.34375 Z M 228.425781 527.34375 " fill-opacity="1" fill-rule="evenodd"/></g><g clip-path="url(#id3)"><path fill="#ea394e" d="M 1214.671875 437.800781 C 1214.671875 483.988281 1177.25 521.429688 1131.085938 521.429688 L 1083.042969 521.429688 C 1036.878906 521.429688 999.457031 483.988281 999.457031 437.800781 L 999.457031 364.722656 L 938.679688 364.722656 C 927.136719 364.722656 917.78125 355.363281 917.78125 343.8125 C 917.78125 332.265625 927.136719 322.90625 938.675781 322.90625 L 1131.085938 322.90625 C 1177.25 322.90625 1214.671875 360.347656 1214.671875 406.535156 Z M 1131.085938 364.722656 L 1041.25 364.722656 L 1041.25 437.800781 C 1041.25 460.890625 1059.960938 479.613281 1083.042969 479.613281 L 1131.085938 479.613281 C 1154.167969 479.613281 1172.878906 460.890625 1172.878906 437.800781 L 1172.878906 406.535156 C 1172.878906 383.445312 1154.167969 364.722656 1131.085938 364.722656 Z M 1193.78125 167.46875 C 1205.324219 167.46875 1214.679688 176.828125 1214.679688 188.378906 L 1214.679688 189.6875 C 1214.679688 235.882812 1177.253906 273.324219 1131.089844 273.324219 L 938.683594 273.324219 C 927.140625 273.324219 917.785156 263.964844 917.785156 252.414062 C 917.785156 240.867188 927.140625 231.507812 938.683594 231.507812 L 1001.4375 231.507812 L 1001.4375 183.523438 C 1001.4375 171.976562 1010.792969 162.617188 1022.332031 162.617188 C 1033.875 162.617188 1043.230469 171.976562 1043.230469 183.523438 L 1043.230469 231.507812 L 1131.089844 231.507812 C 1154.171875 231.507812 1172.882812 212.785156 1172.882812 189.6875 L 1172.882812 188.378906 C 1172.882812 176.828125 1182.238281 167.46875 1193.78125 167.46875 Z M 1193.78125 167.46875 " fill-opacity="1" fill-rule="evenodd"/></g><g clip-path="url(#id4)"><path fill="#ea394e" d="M 1214.671875 1186.664062 C 1214.671875 1232.851562 1177.25 1270.296875 1131.085938 1270.296875 L 1083.042969 1270.296875 C 1036.878906 1270.296875 999.457031 1232.851562 999.457031 1186.664062 L 999.457031 1113.589844 L 938.679688 1113.589844 C 927.136719 1113.589844 917.78125 1104.226562 917.78125 1092.679688 C 917.78125 1081.128906 927.136719 1071.769531 938.675781 1071.769531 L 1131.085938 1071.769531 C 1177.25 1071.769531 1214.671875 1109.210938 1214.671875 1155.402344 Z M 1131.085938 1113.589844 L 1041.25 1113.589844 L 1041.25 1186.664062 C 1041.25 1209.757812 1059.960938 1228.476562 1083.042969 1228.476562 L 1131.085938 1228.476562 C 1154.167969 1228.476562 1172.878906 1209.757812 1172.878906 1186.664062 L 1172.878906 1155.402344 C 1172.878906 1132.308594 1154.167969 1113.589844 1131.085938 1113.589844 Z M 1193.78125 916.335938 C 1205.324219 916.335938 1214.679688 925.695312 1214.679688 937.242188 L 1214.679688 938.554688 C 1214.679688 984.746094 1177.253906 1022.191406 1131.089844 1022.191406 L 938.683594 1022.191406 C 927.140625 1022.191406 917.785156 1012.828125 917.785156 1001.28125 C 917.785156 989.730469 927.140625 980.371094 938.683594 980.371094 L 1001.4375 980.371094 L 1001.4375 932.390625 C 1001.4375 920.839844 1010.792969 911.480469 1022.332031 911.480469 C 1033.875 911.480469 1043.230469 920.839844 1043.230469 932.390625 L 1043.230469 980.371094 L 1131.089844 980.371094 C 1154.171875 980.371094 1172.882812 961.648438 1172.882812 938.554688 L 1172.882812 937.242188 C 1172.882812 925.695312 1182.238281 916.335938 1193.78125 916.335938 Z M 1193.78125 916.335938 " fill-opacity="1" fill-rule="evenodd"/></g></svg>