<svg width="49" height="985" viewBox="0 0 49 985" fill="none" xmlns="http://www.w3.org/2000/svg">
<path fill-rule="evenodd" clip-rule="evenodd" d="M16.1175 198.898C11.0156 198.898 6.87976 194.652 6.87976 189.414L6.87976 183.964C6.87976 178.727 11.0157 174.481 16.1175 174.481L24.1893 174.481V167.586C24.1893 166.276 25.2233 165.215 26.4987 165.215C27.7742 165.215 28.8082 166.276 28.8082 167.586V189.414C28.8082 194.652 24.6723 198.898 19.5704 198.898L16.1175 198.898ZM24.1893 189.414L24.1893 179.223L16.1175 179.223C13.5666 179.223 11.4986 181.346 11.4986 183.964V189.414C11.4986 192.033 13.5666 194.156 16.1175 194.156H19.5704C22.1213 194.156 24.1893 192.033 24.1893 189.414ZM45.9772 196.527C45.9772 197.837 44.9432 198.898 43.6677 198.898H43.5227C38.4209 198.898 34.285 194.652 34.285 189.415V167.586C34.285 166.277 35.319 165.215 36.5944 165.215C37.8699 165.215 38.9039 166.277 38.9039 167.586V174.706H44.2039C45.4793 174.706 46.5133 175.767 46.5133 177.077C46.5133 178.386 45.4793 179.447 44.2039 179.447H38.9039V189.415C38.9039 192.034 40.9718 194.157 43.5227 194.157H43.6677C44.9432 194.157 45.9772 195.218 45.9772 196.527Z" fill="white"/>
<path fill-rule="evenodd" clip-rule="evenodd" d="M14.0402 267.032C14.0402 261.049 18.9057 256.184 24.8885 256.184C30.8714 256.184 35.7368 261.049 35.7368 267.032C35.7368 273.015 30.8714 277.881 24.8885 277.881C18.9057 277.881 14.0402 273.015 14.0402 267.032M42.4392 282.026L36.3009 275.886C38.2048 273.438 39.3529 270.37 39.3529 267.032C39.3529 259.057 32.8638 252.568 24.8885 252.568C16.9132 252.568 10.4241 259.057 10.4241 267.032C10.4241 275.008 16.9132 281.497 24.8885 281.497C28.2262 281.497 31.2944 280.349 33.7425 278.445L39.8826 284.583C40.2352 284.936 40.6981 285.113 41.1609 285.113C41.6238 285.113 42.0867 284.936 42.4392 284.583C43.1462 283.876 43.1462 282.733 42.4392 282.026" fill="#EA394E"/>
<path fill-rule="evenodd" clip-rule="evenodd" d="M35.6487 343.647L44.378 354.495C44.9186 355.166 44.9095 356.124 44.3581 356.788L35.3179 367.636C34.9599 368.064 34.4464 368.285 33.9275 368.285C33.5189 368.285 33.1102 368.148 32.7703 367.867C32.0037 367.227 31.9007 366.086 32.5389 365.318L40.6335 355.609L32.83 345.914C32.2062 345.135 32.3274 343.997 33.1066 343.372C33.8841 342.743 35.0213 342.869 35.6487 343.647ZM18.0751 343.622C18.7133 342.855 19.8506 342.752 20.6226 343.391C21.3892 344.031 21.4923 345.17 20.854 345.938L12.7594 355.647L20.5629 365.344C21.1867 366.121 21.0656 367.259 20.2863 367.886C19.9536 368.154 19.5522 368.286 19.1545 368.286C18.6265 368.286 18.1022 368.054 17.7442 367.611L9.01495 356.763C8.47434 356.09 8.48338 355.132 9.03483 354.47L18.0751 343.622Z" fill="#EA394E"/>
<path fill-rule="evenodd" clip-rule="evenodd" d="M17.6563 433.372C17.6563 432.372 18.4663 431.564 19.4644 431.564C20.4624 431.564 21.2724 432.372 21.2724 433.372C21.2724 434.372 20.4624 435.18 19.4644 435.18C18.4663 435.18 17.6563 434.372 17.6563 433.372ZM24.8885 433.372C24.8885 432.372 25.6985 431.564 26.6966 431.564C27.6946 431.564 28.5046 432.372 28.5046 433.372C28.5046 434.372 27.6946 435.18 26.6966 435.18C25.6985 435.18 24.8885 434.372 24.8885 433.372ZM14.0402 436.988V431.564C14.0402 430.566 14.8521 429.756 15.8483 429.756H37.5449C38.5411 429.756 39.3529 430.566 39.3529 431.564V436.988H14.0402ZM39.3529 453.261C39.3529 454.259 38.5411 455.069 37.5449 455.069H15.8483C14.8521 455.069 14.0402 454.259 14.0402 453.261V440.604H39.3529V453.261ZM37.5448 426.14H15.8483C12.8578 426.14 10.4241 428.573 10.4241 431.564V436.988V440.604V453.26C10.4241 456.251 12.8578 458.685 15.8483 458.685H37.5448C40.5353 458.685 42.969 456.251 42.969 453.26V440.604V436.988V431.564C42.969 428.573 40.5353 426.14 37.5448 426.14V426.14Z" fill="#EA394E"/>
<path fill-rule="evenodd" clip-rule="evenodd" d="M31.4282 542.855C33.3249 540.146 35.2975 536.163 35.6916 531.008H41.0344C40.3419 536.527 36.5342 541.079 31.4282 542.855V542.855ZM12.357 531.008H17.7666C18.1391 536.183 20.0864 540.15 22.0083 542.871C16.8789 541.105 13.0531 536.543 12.357 531.008V531.008ZM22.0644 515.512C20.1623 518.22 18.1716 522.216 17.7739 527.392H12.357C13.0549 521.838 16.9078 517.262 22.0644 515.512V515.512ZM21.4153 527.392C21.9685 521.476 24.9952 517.358 26.7436 515.454C28.5516 517.39 31.5313 521.471 32.0466 527.392H21.4153ZM21.4171 531.008H32.052C31.4987 536.933 28.4648 541.052 26.7183 542.956C24.8252 540.949 21.9215 536.924 21.4171 531.008V531.008ZM41.0344 527.392H35.697C35.3264 522.241 33.4008 518.287 31.4879 515.569C36.5649 517.359 40.3455 521.896 41.0344 527.392V527.392ZM44.777 529.2C44.777 519.249 36.6932 511.152 26.7472 511.123C26.74 511.123 26.7327 511.122 26.7237 511.122C26.7164 511.122 26.7056 511.12 26.6966 511.12C16.727 511.12 8.61609 519.233 8.61609 529.2C8.61609 539.17 16.727 547.281 26.6966 547.281C26.7074 547.281 26.7164 547.279 26.7237 547.279C26.7273 547.279 26.7291 547.281 26.7327 547.281C26.7381 547.281 26.7436 547.277 26.7472 547.277C36.6932 547.25 44.777 539.152 44.777 529.2V529.2Z" fill="#EA394E"/>
<path fill-rule="evenodd" clip-rule="evenodd" d="M32.5356 33.1205C32.2246 32.3376 31.7834 31.6542 31.3965 31.0702C31.2012 30.7773 31.0005 30.479 30.8252 30.1716C30.1218 28.9494 30.3641 28.454 31.505 26.5429L31.6894 26.2301C32.6133 24.6733 32.6639 23.1799 32.7109 21.8636C32.7326 21.2163 32.7543 20.607 32.8791 20.0339C33.1702 18.7104 35.9672 18.3578 37.7012 18.1499C37.9922 19.2872 38.1604 20.4714 38.1604 21.6973C38.1604 26.3422 35.951 30.4717 32.5356 33.1205M10.971 28.5661C12.1209 28.859 13.3666 29.0615 14.6341 29.0615C16.5868 29.0615 18.5811 28.5841 20.3059 27.2335C23.4085 24.8071 23.4085 21.7045 23.4085 19.2094C23.4085 17.5966 23.4085 16.2062 24.0811 14.9714C24.4427 14.3096 25.213 13.8504 26.1043 13.317C26.6504 12.9897 27.2163 12.6534 27.7587 12.2267C28.9213 11.3173 29.7855 10.1475 30.3207 8.85292C32.852 10.1638 34.9493 12.1942 36.3343 14.6803C33.7524 15.0382 30.0875 15.8844 29.348 19.26C29.1527 20.1532 29.122 20.994 29.0985 21.7371C29.0605 22.7912 29.0316 23.6247 28.5796 24.3877L28.3987 24.6914C27.2289 26.6495 25.9054 28.8698 27.69 31.9742C27.9051 32.3503 28.1456 32.7119 28.3825 33.0717C29.0044 34.0047 29.31 34.52 29.3118 35.0262C27.5851 35.7567 25.6867 36.1617 23.696 36.1617C18.205 36.1617 13.4209 33.0844 10.971 28.5661M23.696 7.2329C24.8098 7.2329 25.8856 7.37031 26.927 7.60898C26.6215 8.28157 26.1495 8.8945 25.5276 9.38086C25.1334 9.69185 24.6905 9.9504 24.2511 10.2126C23.0741 10.9141 21.7415 11.7096 20.9062 13.2392C19.7925 15.2823 19.7925 17.3688 19.7925 19.2094C19.7925 21.6593 19.7129 23.1076 18.0784 24.3858C15.6032 26.3259 11.8154 25.2429 9.47213 24.2575C9.32387 23.424 9.23166 22.5706 9.23166 21.6973C9.23166 13.722 15.7207 7.2329 23.696 7.2329M23.696 3.61682C13.7264 3.61682 5.61554 11.7277 5.61554 21.6973C5.61554 31.665 13.7264 39.7778 23.696 39.7778C33.6656 39.7778 41.7765 31.665 41.7765 21.6973C41.7765 11.7277 33.6656 3.61682 23.696 3.61682" fill="#EA394E"/>
<path fill-rule="evenodd" clip-rule="evenodd" d="M32.5448 106.372C31.8289 106.692 30.4204 107.12 28.0247 107.12C25.9925 107.12 24.226 106.428 22.3565 105.696C20.2555 104.873 18.0823 104.021 15.3684 104.021C13.4573 104.021 11.9765 104.251 10.8483 104.56V101.696V89.7922C11.5643 89.4721 12.9764 89.04 15.3684 89.04C17.4006 89.04 19.1671 89.7325 21.0366 90.4648C23.1376 91.2874 25.3108 92.139 28.0247 92.139C29.7207 92.139 31.2358 91.9564 32.5448 91.5966V106.372ZM34.8374 88.4615C34.0021 87.8576 32.9209 87.6858 31.9464 88.004C30.9049 88.3421 29.5489 88.5229 28.0247 88.5229C25.9925 88.5229 24.226 87.8305 22.3565 87.0982C20.2555 86.2755 18.0823 85.424 15.3684 85.424C10.1486 85.424 8.12716 87.1452 7.77459 87.4924C7.42745 87.8305 7.23218 88.2969 7.23218 88.7815V101.696V107.379V116.161C7.23218 117.161 8.04037 117.969 9.04022 117.969C10.0401 117.969 10.8483 117.161 10.8483 116.161V108.39C11.5625 108.072 12.9691 107.638 15.3684 107.638C17.4006 107.638 19.1671 108.33 21.0366 109.062C23.1376 109.885 25.3108 110.737 28.0247 110.737C31.2955 110.737 33.3096 110.053 34.427 109.48C35.4974 108.925 36.1609 107.847 36.1609 106.667V91.0397C36.1609 90.0272 35.6673 89.0635 34.8374 88.4615V88.4615Z" fill="#EA394E"/>
</svg>
