<svg xmlns="http://www.w3.org/2000/svg" xmlns:xlink="http://www.w3.org/1999/xlink" width="660" zoomAndPan="magnify" viewBox="0 0 495 767.999994" height="1024" preserveAspectRatio="xMidYMid meet" version="1.0"><defs><clipPath id="id1"><path d="M 123.28125 24.304688 L 271.78125 24.304688 L 271.78125 204 L 123.28125 204 Z M 123.28125 24.304688 " clip-rule="nonzero"/></clipPath><clipPath id="id2"><path d="M 0 374.820312 L 123.46875 374.820312 L 123.46875 553 L 0 553 Z M 0 374.820312 " clip-rule="nonzero"/></clipPath></defs><rect x="-49.5" width="594" fill="#ffffff" y="-76.799999" height="921.599993" fill-opacity="1"/><rect x="-49.5" width="594" fill="#ffffff" y="-76.799999" height="921.599993" fill-opacity="1"/><rect x="-49.5" width="594" fill="#ffffff" y="-76.799999" height="921.599993" fill-opacity="1"/><g clip-path="url(#id1)"><path fill="#ea394e" d="M 271.78125 162.03125 C 271.78125 185.136719 253.0625 203.863281 229.96875 203.863281 L 205.941406 203.863281 C 182.851562 203.863281 164.132812 185.136719 164.132812 162.03125 L 164.132812 125.476562 L 133.734375 125.476562 C 127.960938 125.476562 123.28125 120.796875 123.28125 115.019531 C 123.28125 109.242188 127.960938 104.558594 133.734375 104.558594 L 229.96875 104.558594 C 253.0625 104.558594 271.78125 123.289062 271.78125 146.394531 Z M 229.96875 125.476562 L 185.039062 125.476562 L 185.039062 162.03125 C 185.039062 173.582031 194.398438 182.945312 205.941406 182.945312 L 229.96875 182.945312 C 241.515625 182.945312 250.875 173.582031 250.875 162.03125 L 250.875 146.394531 C 250.875 134.84375 241.515625 125.476562 229.96875 125.476562 Z M 261.328125 26.808594 C 267.101562 26.808594 271.78125 31.492188 271.78125 37.269531 L 271.78125 37.921875 C 271.78125 61.03125 253.0625 79.757812 229.972656 79.757812 L 133.734375 79.757812 C 127.964844 79.757812 123.285156 75.078125 123.285156 69.300781 C 123.285156 63.523438 127.964844 58.839844 133.734375 58.839844 L 165.125 58.839844 L 165.125 34.839844 C 165.125 29.0625 169.804688 24.382812 175.578125 24.382812 C 181.347656 24.382812 186.027344 29.0625 186.027344 34.839844 L 186.027344 58.839844 L 229.972656 58.839844 C 241.519531 58.839844 250.878906 49.476562 250.878906 37.921875 L 250.878906 37.269531 C 250.878906 31.492188 255.558594 26.808594 261.328125 26.808594 Z M 261.328125 26.808594 " fill-opacity="1" fill-rule="evenodd"/></g><g clip-path="url(#id2)"><path fill="#ea394e" d="M 123.464844 511.398438 C 123.464844 534.3125 104.84375 552.882812 81.867188 552.882812 L 57.960938 552.882812 C 34.988281 552.882812 16.363281 534.3125 16.363281 511.398438 L 16.363281 475.148438 L -13.882812 475.148438 C -19.625 475.148438 -24.28125 470.507812 -24.28125 464.777344 C -24.28125 459.050781 -19.625 454.40625 -13.882812 454.40625 L 81.867188 454.40625 C 104.84375 454.40625 123.464844 472.980469 123.464844 495.890625 Z M 81.867188 475.148438 L 37.164062 475.148438 L 37.164062 511.398438 C 37.164062 522.855469 46.472656 532.140625 57.960938 532.140625 L 81.867188 532.140625 C 93.355469 532.140625 102.667969 522.855469 102.667969 511.398438 L 102.667969 495.890625 C 102.667969 484.4375 93.355469 475.148438 81.867188 475.148438 Z M 113.070312 377.304688 C 118.8125 377.304688 123.46875 381.945312 123.46875 387.675781 L 123.46875 388.324219 C 123.46875 411.238281 104.84375 429.8125 81.871094 429.8125 L -13.878906 429.8125 C -19.625 429.8125 -24.28125 425.167969 -24.28125 419.441406 C -24.28125 413.710938 -19.625 409.070312 -13.878906 409.070312 L 17.347656 409.070312 L 17.347656 385.269531 C 17.347656 379.539062 22.003906 374.894531 27.75 374.894531 C 33.492188 374.894531 38.148438 379.539062 38.148438 385.269531 L 38.148438 409.070312 L 81.871094 409.070312 C 93.355469 409.070312 102.667969 399.78125 102.667969 388.324219 L 102.667969 387.675781 C 102.667969 381.945312 107.324219 377.304688 113.070312 377.304688 Z M 113.070312 377.304688 " fill-opacity="1" fill-rule="evenodd"/></g></svg>