<svg xmlns="http://www.w3.org/2000/svg" xmlns:xlink="http://www.w3.org/1999/xlink" width="1600" zoomAndPan="magnify" viewBox="0 0 1200 1199.999942" height="1600" preserveAspectRatio="xMidYMid meet" version="1.0"><defs><clipPath id="id1"><path d="M 0 699.367188 L 269.242188 699.367188 L 269.242188 1099 L 0 1099 Z M 0 699.367188 " clip-rule="nonzero"/></clipPath><clipPath id="id2"><path d="M 1012.222656 225.304688 L 1200 225.304688 L 1200 625 L 1012.222656 625 Z M 1012.222656 225.304688 " clip-rule="nonzero"/></clipPath></defs><rect x="-120" width="1440" fill="#ffffff" y="-119.999994" height="1439.999931" fill-opacity="1"/><rect x="-120" width="1440" fill="#ffffff" y="-119.999994" height="1439.999931" fill-opacity="1"/><rect x="-120" width="1440" fill="#efefef" y="-119.999994" height="1439.999931" fill-opacity="1"/><g clip-path="url(#id1)"><path fill="#ea394e" d="M 269.234375 1005.234375 C 269.234375 1056.539062 227.636719 1098.132812 176.328125 1098.132812 L 122.929688 1098.132812 C 71.617188 1098.132812 30.023438 1056.539062 30.023438 1005.234375 L 30.023438 924.054688 L -37.53125 924.054688 C -50.359375 924.054688 -60.757812 913.65625 -60.757812 900.828125 C -60.757812 888 -50.359375 877.601562 -37.53125 877.601562 L 176.328125 877.601562 C 227.636719 877.601562 269.234375 919.195312 269.234375 970.503906 Z M 176.328125 924.054688 L 76.476562 924.054688 L 76.476562 1005.234375 C 76.476562 1030.882812 97.273438 1051.679688 122.929688 1051.679688 L 176.328125 1051.679688 C 201.984375 1051.679688 222.78125 1030.882812 222.78125 1005.234375 L 222.78125 970.503906 C 222.78125 944.851562 201.984375 924.054688 176.328125 924.054688 Z M 246.011719 704.941406 C 258.839844 704.941406 269.242188 715.339844 269.242188 728.167969 L 269.242188 729.621094 C 269.242188 780.933594 227.644531 822.527344 176.332031 822.527344 L -37.527344 822.527344 C -50.355469 822.527344 -60.753906 812.128906 -60.753906 799.300781 C -60.753906 786.472656 -50.355469 776.074219 -37.527344 776.074219 L 32.222656 776.074219 L 32.222656 722.773438 C 32.222656 709.945312 42.621094 699.546875 55.449219 699.546875 C 68.277344 699.546875 78.679688 709.945312 78.679688 722.773438 L 78.679688 776.074219 L 176.332031 776.074219 C 201.988281 776.074219 222.785156 755.277344 222.785156 729.621094 L 222.785156 728.167969 C 222.785156 715.339844 233.183594 704.941406 246.011719 704.941406 Z M 246.011719 704.941406 " fill-opacity="1" fill-rule="evenodd"/></g><g clip-path="url(#id2)"><path fill="#ea394e" d="M 1342.21875 531.167969 C 1342.21875 582.476562 1300.621094 624.066406 1249.308594 624.066406 L 1195.914062 624.066406 C 1144.601562 624.066406 1103.003906 582.476562 1103.003906 531.167969 L 1103.003906 449.992188 L 1035.449219 449.992188 C 1022.621094 449.992188 1012.222656 439.59375 1012.222656 426.765625 C 1012.222656 413.9375 1022.621094 403.539062 1035.449219 403.539062 L 1249.308594 403.539062 C 1300.621094 403.539062 1342.21875 445.132812 1342.21875 496.4375 Z M 1249.308594 449.992188 L 1149.457031 449.992188 L 1149.457031 531.167969 C 1149.457031 556.820312 1170.257812 577.617188 1195.914062 577.617188 L 1249.308594 577.617188 C 1274.964844 577.617188 1295.761719 556.820312 1295.761719 531.167969 L 1295.761719 496.4375 C 1295.761719 470.789062 1274.964844 449.992188 1249.308594 449.992188 Z M 1318.996094 230.875 C 1331.824219 230.875 1342.222656 241.273438 1342.222656 254.101562 L 1342.222656 255.558594 C 1342.222656 306.871094 1300.625 348.464844 1249.3125 348.464844 L 1035.457031 348.464844 C 1022.628906 348.464844 1012.226562 338.066406 1012.226562 325.238281 C 1012.226562 312.410156 1022.628906 302.011719 1035.457031 302.011719 L 1105.207031 302.011719 L 1105.207031 248.710938 C 1105.207031 235.882812 1115.605469 225.484375 1128.433594 225.484375 C 1141.261719 225.484375 1151.660156 235.882812 1151.660156 248.710938 L 1151.660156 302.011719 L 1249.3125 302.011719 C 1274.96875 302.011719 1295.769531 281.214844 1295.769531 255.558594 L 1295.769531 254.101562 C 1295.769531 241.273438 1306.167969 230.875 1318.996094 230.875 Z M 1318.996094 230.875 " fill-opacity="1" fill-rule="evenodd"/></g></svg>