<svg xmlns="http://www.w3.org/2000/svg" xmlns:xlink="http://www.w3.org/1999/xlink" width="1440" zoomAndPan="magnify" viewBox="0 0 1080 2183.249974" height="2911" preserveAspectRatio="xMidYMid meet" version="1.0"><defs><clipPath id="id1"><path d="M 0.183594 0 L 1079.8125 0 L 1079.8125 2182.5 L 0.183594 2182.5 Z M 0.183594 0 " clip-rule="nonzero"/></clipPath><clipPath id="id2"><path d="M 0.183594 446.234375 L 235.796875 446.234375 L 235.796875 806 L 0.183594 806 Z M 0.183594 446.234375 " clip-rule="nonzero"/></clipPath><clipPath id="id3"><path d="M 917.78125 134.707031 L 1079.8125 134.707031 L 1079.8125 494 L 917.78125 494 Z M 917.78125 134.707031 " clip-rule="nonzero"/></clipPath><clipPath id="id4"><path d="M 890.152344 966.566406 L 1079.8125 966.566406 L 1079.8125 1326 L 890.152344 1326 Z M 890.152344 966.566406 " clip-rule="nonzero"/></clipPath></defs><g clip-path="url(#id1)"><path fill="#ffffff" d="M 0.183594 0 L 1079.816406 0 L 1079.816406 2189.996094 L 0.183594 2189.996094 Z M 0.183594 0 " fill-opacity="1" fill-rule="nonzero"/><path fill="#ffffff" d="M 0.183594 0 L 1079.816406 0 L 1079.816406 2182.5 L 0.183594 2182.5 Z M 0.183594 0 " fill-opacity="1" fill-rule="nonzero"/><path fill="#efefef" d="M 0.183594 0 L 1079.816406 0 L 1079.816406 2182.5 L 0.183594 2182.5 Z M 0.183594 0 " fill-opacity="1" fill-rule="nonzero"/></g><g clip-path="url(#id2)"><path fill="#ea394e" d="M 235.789062 721.589844 C 235.789062 767.777344 198.367188 805.21875 152.199219 805.21875 L 104.160156 805.21875 C 57.996094 805.21875 20.570312 767.777344 20.570312 721.589844 L 20.570312 648.511719 L -40.207031 648.511719 C -51.746094 648.511719 -61.101562 639.152344 -61.101562 627.601562 C -61.101562 616.054688 -51.746094 606.691406 -40.207031 606.691406 L 152.199219 606.691406 C 198.367188 606.691406 235.789062 644.136719 235.789062 690.324219 Z M 152.199219 648.511719 L 62.367188 648.511719 L 62.367188 721.589844 C 62.367188 744.679688 81.078125 763.402344 104.160156 763.402344 L 152.199219 763.402344 C 175.285156 763.402344 193.996094 744.679688 193.996094 721.589844 L 193.996094 690.324219 C 193.996094 667.234375 175.285156 648.511719 152.199219 648.511719 Z M 214.898438 451.257812 C 226.4375 451.257812 235.796875 460.617188 235.796875 472.167969 L 235.796875 473.476562 C 235.796875 519.667969 198.371094 557.113281 152.207031 557.113281 L -40.203125 557.113281 C -51.742188 557.113281 -61.097656 547.75 -61.097656 536.203125 C -61.097656 524.65625 -51.742188 515.292969 -40.203125 515.292969 L 22.554688 515.292969 L 22.554688 467.3125 C 22.554688 455.765625 31.910156 446.402344 43.449219 446.402344 C 54.992188 446.402344 64.347656 455.765625 64.347656 467.3125 L 64.347656 515.292969 L 152.207031 515.292969 C 175.289062 515.292969 194 496.574219 194 473.476562 L 194 472.167969 C 194 460.617188 203.355469 451.257812 214.898438 451.257812 Z M 214.898438 451.257812 " fill-opacity="1" fill-rule="evenodd"/></g><g clip-path="url(#id3)"><path fill="#ea394e" d="M 1214.671875 410.058594 C 1214.671875 456.246094 1177.25 493.691406 1131.085938 493.691406 L 1083.042969 493.691406 C 1036.878906 493.691406 999.457031 456.246094 999.457031 410.058594 L 999.457031 336.984375 L 938.679688 336.984375 C 927.136719 336.984375 917.78125 327.621094 917.78125 316.074219 C 917.78125 304.523438 927.136719 295.164062 938.675781 295.164062 L 1131.085938 295.164062 C 1177.25 295.164062 1214.671875 332.605469 1214.671875 378.796875 Z M 1131.085938 336.984375 L 1041.25 336.984375 L 1041.25 410.058594 C 1041.25 433.152344 1059.960938 451.871094 1083.042969 451.871094 L 1131.085938 451.871094 C 1154.167969 451.871094 1172.878906 433.152344 1172.878906 410.058594 L 1172.878906 378.796875 C 1172.878906 355.703125 1154.167969 336.984375 1131.085938 336.984375 Z M 1193.78125 139.730469 C 1205.324219 139.730469 1214.679688 149.089844 1214.679688 160.636719 L 1214.679688 161.949219 C 1214.679688 208.140625 1177.253906 245.585938 1131.089844 245.585938 L 938.683594 245.585938 C 927.140625 245.585938 917.785156 236.222656 917.785156 224.675781 C 917.785156 213.125 927.140625 203.765625 938.683594 203.765625 L 1001.4375 203.765625 L 1001.4375 155.785156 C 1001.4375 144.234375 1010.792969 134.875 1022.332031 134.875 C 1033.875 134.875 1043.230469 144.234375 1043.230469 155.785156 L 1043.230469 203.765625 L 1131.089844 203.765625 C 1154.171875 203.765625 1172.882812 185.042969 1172.882812 161.949219 L 1172.882812 160.636719 C 1172.882812 149.089844 1182.238281 139.730469 1193.78125 139.730469 Z M 1193.78125 139.730469 " fill-opacity="1" fill-rule="evenodd"/></g><g clip-path="url(#id4)"><path fill="#ea394e" d="M 1187.046875 1241.921875 C 1187.046875 1288.109375 1149.621094 1325.550781 1103.457031 1325.550781 L 1055.417969 1325.550781 C 1009.253906 1325.550781 971.828125 1288.109375 971.828125 1241.921875 L 971.828125 1168.84375 L 911.050781 1168.84375 C 899.507812 1168.84375 890.152344 1159.484375 890.152344 1147.933594 C 890.152344 1136.386719 899.507812 1127.023438 911.050781 1127.023438 L 1103.457031 1127.023438 C 1149.621094 1127.023438 1187.046875 1164.46875 1187.046875 1210.65625 Z M 1103.457031 1168.84375 L 1013.621094 1168.84375 L 1013.621094 1241.921875 C 1013.621094 1265.011719 1032.335938 1283.734375 1055.417969 1283.734375 L 1103.457031 1283.734375 C 1126.539062 1283.734375 1145.25 1265.011719 1145.25 1241.921875 L 1145.25 1210.65625 C 1145.25 1187.566406 1126.539062 1168.84375 1103.457031 1168.84375 Z M 1166.152344 971.589844 C 1177.695312 971.589844 1187.050781 980.949219 1187.050781 992.5 L 1187.050781 993.808594 C 1187.050781 1040 1149.625 1077.445312 1103.460938 1077.445312 L 911.054688 1077.445312 C 899.511719 1077.445312 890.15625 1068.082031 890.15625 1056.535156 C 890.15625 1044.988281 899.511719 1035.625 911.054688 1035.625 L 973.808594 1035.625 L 973.808594 987.644531 C 973.808594 976.097656 983.164062 966.734375 994.707031 966.734375 C 1006.246094 966.734375 1015.605469 976.097656 1015.605469 987.644531 L 1015.605469 1035.625 L 1103.460938 1035.625 C 1126.542969 1035.625 1145.257812 1016.90625 1145.257812 993.808594 L 1145.257812 992.5 C 1145.257812 980.949219 1154.613281 971.589844 1166.152344 971.589844 Z M 1166.152344 971.589844 " fill-opacity="1" fill-rule="evenodd"/></g></svg>