<svg xmlns="http://www.w3.org/2000/svg" xmlns:xlink="http://www.w3.org/1999/xlink" width="1440" zoomAndPan="magnify" viewBox="0 0 1080 2183.249974" height="2911" preserveAspectRatio="xMidYMid meet" version="1.0"><defs><clipPath id="id1"><path d="M 0.183594 0 L 1079.8125 0 L 1079.8125 2182.5 L 0.183594 2182.5 Z M 0.183594 0 " clip-rule="nonzero"/></clipPath><clipPath id="id2"><path d="M 0.183594 494.582031 L 249.324219 494.582031 L 249.324219 854 L 0.183594 854 Z M 0.183594 494.582031 " clip-rule="nonzero"/></clipPath><clipPath id="id3"><path d="M 917.78125 134.707031 L 1079.8125 134.707031 L 1079.8125 494 L 917.78125 494 Z M 917.78125 134.707031 " clip-rule="nonzero"/></clipPath><clipPath id="id4"><path d="M 917.78125 1011.460938 L 1079.8125 1011.460938 L 1079.8125 1371 L 917.78125 1371 Z M 917.78125 1011.460938 " clip-rule="nonzero"/></clipPath></defs><g clip-path="url(#id1)"><path fill="#ffffff" d="M 0.183594 0 L 1079.816406 0 L 1079.816406 2189.996094 L 0.183594 2189.996094 Z M 0.183594 0 " fill-opacity="1" fill-rule="nonzero"/><path fill="#ffffff" d="M 0.183594 0 L 1079.816406 0 L 1079.816406 2182.5 L 0.183594 2182.5 Z M 0.183594 0 " fill-opacity="1" fill-rule="nonzero"/><path fill="#efefef" d="M 0.183594 0 L 1079.816406 0 L 1079.816406 2182.5 L 0.183594 2182.5 Z M 0.183594 0 " fill-opacity="1" fill-rule="nonzero"/></g><g clip-path="url(#id2)"><path fill="#ea394e" d="M 249.320312 769.9375 C 249.320312 816.125 211.894531 853.566406 165.730469 853.566406 L 117.691406 853.566406 C 71.527344 853.566406 34.101562 816.125 34.101562 769.9375 L 34.101562 696.859375 L -26.675781 696.859375 C -38.214844 696.859375 -47.574219 687.5 -47.574219 675.949219 C -47.574219 664.402344 -38.214844 655.039062 -26.675781 655.039062 L 165.730469 655.039062 C 211.894531 655.039062 249.320312 692.484375 249.320312 738.671875 Z M 165.730469 696.859375 L 75.898438 696.859375 L 75.898438 769.9375 C 75.898438 793.027344 94.609375 811.75 117.691406 811.75 L 165.730469 811.75 C 188.816406 811.75 207.527344 793.027344 207.527344 769.9375 L 207.527344 738.671875 C 207.527344 715.582031 188.816406 696.859375 165.730469 696.859375 Z M 228.425781 499.605469 C 239.96875 499.605469 249.324219 508.964844 249.324219 520.515625 L 249.324219 521.824219 C 249.324219 568.015625 211.902344 605.460938 165.734375 605.460938 L -26.671875 605.460938 C -38.210938 605.460938 -47.566406 596.101562 -47.566406 584.550781 C -47.566406 573.003906 -38.210938 563.640625 -26.671875 563.640625 L 36.082031 563.640625 L 36.082031 515.660156 C 36.082031 504.113281 45.4375 494.75 56.980469 494.75 C 68.523438 494.75 77.878906 504.113281 77.878906 515.660156 L 77.878906 563.640625 L 165.734375 563.640625 C 188.816406 563.640625 207.53125 544.921875 207.53125 521.824219 L 207.53125 520.515625 C 207.53125 508.964844 216.886719 499.605469 228.425781 499.605469 Z M 228.425781 499.605469 " fill-opacity="1" fill-rule="evenodd"/></g><g clip-path="url(#id3)"><path fill="#ea394e" d="M 1214.671875 410.058594 C 1214.671875 456.246094 1177.25 493.691406 1131.085938 493.691406 L 1083.042969 493.691406 C 1036.878906 493.691406 999.457031 456.246094 999.457031 410.058594 L 999.457031 336.984375 L 938.679688 336.984375 C 927.136719 336.984375 917.78125 327.621094 917.78125 316.074219 C 917.78125 304.523438 927.136719 295.164062 938.675781 295.164062 L 1131.085938 295.164062 C 1177.25 295.164062 1214.671875 332.605469 1214.671875 378.796875 Z M 1131.085938 336.984375 L 1041.25 336.984375 L 1041.25 410.058594 C 1041.25 433.152344 1059.960938 451.871094 1083.042969 451.871094 L 1131.085938 451.871094 C 1154.167969 451.871094 1172.878906 433.152344 1172.878906 410.058594 L 1172.878906 378.796875 C 1172.878906 355.703125 1154.167969 336.984375 1131.085938 336.984375 Z M 1193.78125 139.730469 C 1205.324219 139.730469 1214.679688 149.089844 1214.679688 160.636719 L 1214.679688 161.949219 C 1214.679688 208.140625 1177.253906 245.585938 1131.089844 245.585938 L 938.683594 245.585938 C 927.140625 245.585938 917.785156 236.222656 917.785156 224.675781 C 917.785156 213.125 927.140625 203.765625 938.683594 203.765625 L 1001.4375 203.765625 L 1001.4375 155.785156 C 1001.4375 144.234375 1010.792969 134.875 1022.332031 134.875 C 1033.875 134.875 1043.230469 144.234375 1043.230469 155.785156 L 1043.230469 203.765625 L 1131.089844 203.765625 C 1154.171875 203.765625 1172.882812 185.042969 1172.882812 161.949219 L 1172.882812 160.636719 C 1172.882812 149.089844 1182.238281 139.730469 1193.78125 139.730469 Z M 1193.78125 139.730469 " fill-opacity="1" fill-rule="evenodd"/></g><g clip-path="url(#id4)"><path fill="#ea394e" d="M 1214.671875 1286.816406 C 1214.671875 1333.003906 1177.25 1370.445312 1131.085938 1370.445312 L 1083.042969 1370.445312 C 1036.878906 1370.445312 999.457031 1333.003906 999.457031 1286.816406 L 999.457031 1213.738281 L 938.679688 1213.738281 C 927.136719 1213.738281 917.78125 1204.378906 917.78125 1192.828125 C 917.78125 1181.28125 927.136719 1171.917969 938.675781 1171.917969 L 1131.085938 1171.917969 C 1177.25 1171.917969 1214.671875 1209.363281 1214.671875 1255.550781 Z M 1131.085938 1213.738281 L 1041.25 1213.738281 L 1041.25 1286.816406 C 1041.25 1309.90625 1059.960938 1328.628906 1083.042969 1328.628906 L 1131.085938 1328.628906 C 1154.167969 1328.628906 1172.878906 1309.90625 1172.878906 1286.816406 L 1172.878906 1255.550781 C 1172.878906 1232.460938 1154.167969 1213.738281 1131.085938 1213.738281 Z M 1193.78125 1016.484375 C 1205.324219 1016.484375 1214.679688 1025.84375 1214.679688 1037.394531 L 1214.679688 1038.703125 C 1214.679688 1084.894531 1177.253906 1122.339844 1131.089844 1122.339844 L 938.683594 1122.339844 C 927.140625 1122.339844 917.785156 1112.976562 917.785156 1101.429688 C 917.785156 1089.882812 927.140625 1080.519531 938.683594 1080.519531 L 1001.4375 1080.519531 L 1001.4375 1032.539062 C 1001.4375 1020.992188 1010.792969 1011.628906 1022.332031 1011.628906 C 1033.875 1011.628906 1043.230469 1020.992188 1043.230469 1032.539062 L 1043.230469 1080.519531 L 1131.089844 1080.519531 C 1154.171875 1080.519531 1172.882812 1061.800781 1172.882812 1038.703125 L 1172.882812 1037.394531 C 1172.882812 1025.84375 1182.238281 1016.484375 1193.78125 1016.484375 Z M 1193.78125 1016.484375 " fill-opacity="1" fill-rule="evenodd"/></g></svg>