<svg xmlns="http://www.w3.org/2000/svg" xmlns:xlink="http://www.w3.org/1999/xlink" width="1600" zoomAndPan="magnify" viewBox="0 0 1200 1199.999942" height="1600" preserveAspectRatio="xMidYMid meet" version="1.0"><defs><clipPath id="id1"><path d="M 869.816406 221.503906 L 1199.816406 221.503906 L 1199.816406 621 L 869.816406 621 Z M 869.816406 221.503906 " clip-rule="nonzero"/></clipPath></defs><rect x="-120" width="1440" fill="#ffffff" y="-119.999994" height="1439.999931" fill-opacity="1"/><rect x="-120" width="1440" fill="#ffffff" y="-119.999994" height="1439.999931" fill-opacity="1"/><rect x="-120" width="1440" fill="#efefef" y="-119.999994" height="1439.999931" fill-opacity="1"/><path fill="#ea394e" d="M 329.996094 1105.867188 C 329.996094 1157.171875 288.398438 1198.765625 237.085938 1198.765625 L 183.691406 1198.765625 C 132.378906 1198.765625 90.78125 1157.171875 90.78125 1105.867188 L 90.78125 1024.6875 L 23.226562 1024.6875 C 10.398438 1024.6875 0 1014.292969 0 1001.460938 C 0 988.632812 10.398438 978.234375 23.226562 978.234375 L 237.085938 978.234375 C 288.398438 978.234375 329.996094 1019.828125 329.996094 1071.136719 Z M 237.085938 1024.6875 L 137.234375 1024.6875 L 137.234375 1105.867188 C 137.234375 1131.515625 158.035156 1152.3125 183.691406 1152.3125 L 237.085938 1152.3125 C 262.742188 1152.3125 283.539062 1131.515625 283.539062 1105.867188 L 283.539062 1071.136719 C 283.539062 1045.484375 262.742188 1024.6875 237.085938 1024.6875 Z M 306.773438 805.574219 C 319.601562 805.574219 330 815.972656 330 828.800781 L 330 830.253906 C 330 881.566406 288.402344 923.160156 237.089844 923.160156 L 23.230469 923.160156 C 10.402344 923.160156 0.00390625 912.761719 0.00390625 899.933594 C 0.00390625 887.105469 10.402344 876.707031 23.230469 876.707031 L 92.984375 876.707031 L 92.984375 823.40625 C 92.984375 810.578125 103.382812 800.179688 116.210938 800.179688 C 129.039062 800.179688 139.4375 810.578125 139.4375 823.40625 L 139.4375 876.707031 L 237.089844 876.707031 C 262.746094 876.707031 283.546875 855.910156 283.546875 830.253906 L 283.546875 828.800781 C 283.546875 815.972656 293.945312 805.574219 306.773438 805.574219 Z M 306.773438 805.574219 " fill-opacity="1" fill-rule="evenodd"/><g clip-path="url(#id1)"><path fill="#ea394e" d="M 1199.8125 527.371094 C 1199.8125 578.679688 1158.214844 620.269531 1106.902344 620.269531 L 1053.507812 620.269531 C 1002.195312 620.269531 960.597656 578.679688 960.597656 527.371094 L 960.597656 446.195312 L 893.046875 446.195312 C 880.21875 446.195312 869.816406 435.796875 869.816406 422.96875 C 869.816406 410.140625 880.21875 399.742188 893.046875 399.742188 L 1106.902344 399.742188 C 1158.214844 399.742188 1199.8125 441.332031 1199.8125 492.640625 Z M 1106.902344 446.195312 L 1007.054688 446.195312 L 1007.054688 527.371094 C 1007.054688 553.023438 1027.851562 573.816406 1053.507812 573.816406 L 1106.902344 573.816406 C 1132.558594 573.816406 1153.359375 553.023438 1153.359375 527.371094 L 1153.359375 492.640625 C 1153.359375 466.992188 1132.558594 446.195312 1106.902344 446.195312 Z M 1176.589844 227.078125 C 1189.417969 227.078125 1199.816406 237.476562 1199.816406 250.304688 L 1199.816406 251.761719 C 1199.816406 303.074219 1158.222656 344.667969 1106.910156 344.667969 L 893.050781 344.667969 C 880.222656 344.667969 869.824219 334.269531 869.824219 321.441406 C 869.824219 308.609375 880.222656 298.214844 893.050781 298.214844 L 962.800781 298.214844 L 962.800781 244.914062 C 962.800781 232.085938 973.199219 221.6875 986.027344 221.6875 C 998.855469 221.6875 1009.257812 232.085938 1009.257812 244.914062 L 1009.257812 298.214844 L 1106.910156 298.214844 C 1132.566406 298.214844 1153.363281 277.417969 1153.363281 251.761719 L 1153.363281 250.304688 C 1153.363281 237.476562 1163.761719 227.078125 1176.589844 227.078125 Z M 1176.589844 227.078125 " fill-opacity="1" fill-rule="evenodd"/></g></svg>