<svg width="151" height="28.15" viewBox="0 0 3028 564" fill="none" xmlns="http://www.w3.org/2000/svg">
<g clip-path="url(#clip0_344_13665)">
<path fill-rule="evenodd" clip-rule="evenodd" d="M447.467 40.633C447.467 62.5908 429.667 80.391 407.709 80.391H347.871H343.006C299.09 80.391 263.49 115.992 263.49 159.907V525.965C263.49 547.922 245.689 565.723 223.732 565.723C201.774 565.723 183.974 547.922 183.974 525.965V159.907C183.974 130.94 191.718 103.783 205.249 80.391H39.7546C17.7969 80.391 -0.00341797 62.5908 -0.00341797 40.633C-0.00341797 18.6753 17.7969 0.875 39.7546 0.875H343.006H347.871H407.709C429.667 0.875 447.467 18.6753 447.467 40.633ZM604.479 199.781C604.479 177.824 586.679 160.023 564.721 160.023H559.856C472.025 160.023 400.824 231.225 400.824 319.055V525.964C400.824 547.922 418.624 565.722 440.582 565.722C462.54 565.722 480.34 547.922 480.34 525.964V319.055C480.34 275.14 515.94 239.539 559.856 239.539H564.721C586.679 239.539 604.479 221.739 604.479 199.781ZM826.643 319.055C826.643 231.225 897.844 160.023 985.675 160.023H1045.12C1132.95 160.023 1204.15 231.224 1204.15 319.055V525.964C1204.15 547.922 1186.35 565.722 1164.39 565.722C1142.43 565.722 1124.63 547.922 1124.63 525.964V319.055C1124.63 275.14 1089.03 239.539 1045.12 239.539H985.675C941.76 239.539 906.159 275.14 906.159 319.055V525.964C906.159 547.922 888.359 565.722 866.401 565.722C844.443 565.722 826.643 547.922 826.643 525.964V319.055ZM713.493 160.023C735.451 160.023 753.251 177.824 753.251 199.781V525.961C753.251 547.919 735.451 565.719 713.493 565.719C691.535 565.719 673.735 547.919 673.735 525.961V199.781C673.735 177.824 691.535 160.023 713.493 160.023ZM2225.01 160.032C2292.69 160.032 2347.56 214.903 2347.56 282.591C2347.56 350.278 2292.69 405.149 2225.01 405.149H2083.16C2090.57 451.111 2130.42 486.214 2178.48 486.214H2307.81C2329.76 486.214 2347.56 504.014 2347.56 525.972C2347.56 547.93 2329.76 565.73 2307.81 565.73H2178.48C2081.23 565.73 2002.4 486.9 2002.4 389.659V319.064C2002.4 231.233 2073.61 160.032 2161.44 160.032H2225.01ZM2081.92 319.064V325.633H2225.01C2248.78 325.633 2268.05 306.362 2268.05 282.591C2268.05 258.819 2248.78 239.548 2225.01 239.548H2161.44C2117.52 239.548 2081.92 275.148 2081.92 319.064ZM2670.43 199.79C2670.43 177.832 2652.63 160.032 2630.67 160.032H2562.5C2474.67 160.032 2403.46 231.233 2403.46 319.064V389.659C2403.46 486.9 2482.29 565.73 2579.54 565.73H2630.67C2652.63 565.73 2670.43 547.93 2670.43 525.972C2670.43 504.014 2652.63 486.214 2630.67 486.214H2579.54C2526.21 486.214 2482.98 442.985 2482.98 389.659V319.064C2482.98 275.148 2518.58 239.548 2562.5 239.548H2630.67C2652.63 239.548 2670.43 221.747 2670.43 199.79ZM2779.46 565.732C2757.5 565.732 2739.7 547.932 2739.7 525.974V40.6403C2739.7 18.6826 2757.5 0.882328 2779.46 0.882324C2801.41 0.88232 2819.21 18.6826 2819.21 40.6403V160.032H2870.78C2958.61 160.032 3029.81 231.233 3029.81 319.064V525.972C3029.81 547.93 3012.01 565.73 2990.05 565.73C2968.09 565.73 2950.29 547.93 2950.29 525.972V319.064C2950.29 275.148 2914.69 239.548 2870.78 239.548H2819.21V525.974C2819.21 547.932 2801.41 565.732 2779.46 565.732Z" fill="#131313"/>
<path fill-rule="evenodd" clip-rule="evenodd" d="M1432.44 565.724C1344.61 565.724 1273.41 494.523 1273.41 406.692L1273.41 315.295C1273.41 227.464 1344.61 156.263 1432.44 156.263L1571.4 156.263V40.632C1571.4 18.6743 1589.2 0.87402 1611.16 0.874023C1633.12 0.874025 1650.92 18.6743 1650.92 40.632V406.692C1650.92 494.523 1579.72 565.724 1491.89 565.724L1432.44 565.724ZM1571.4 406.692L1571.4 235.779L1432.44 235.779C1388.53 235.779 1352.93 271.379 1352.93 315.295V406.692C1352.93 450.607 1388.53 486.208 1432.44 486.208H1491.89C1535.8 486.208 1571.4 450.607 1571.4 406.692ZM1946.49 525.974C1946.49 547.932 1928.69 565.732 1906.73 565.732H1904.24C1816.4 565.732 1745.2 494.531 1745.2 406.7V40.6404C1745.2 18.6827 1763 0.882389 1784.96 0.882389C1806.92 0.882389 1824.72 18.6827 1824.72 40.6404V160.032H1915.96C1937.92 160.032 1955.72 177.832 1955.72 199.79C1955.72 221.748 1937.92 239.548 1915.96 239.548H1824.72V406.7C1824.72 450.616 1860.32 486.216 1904.24 486.216H1906.73C1928.69 486.216 1946.49 504.016 1946.49 525.974Z" fill="#EA394E"/>
</g>
<defs>
<clipPath id="clip0_344_13665">
<rect width="3027.29" height="562.292" fill="white" transform="translate(0 0.875)"/>
</clipPath>
</defs>
</svg>
