<svg width="179" height="397" viewBox="0 0 179 397" fill="none" xmlns="http://www.w3.org/2000/svg">
<path fill-rule="evenodd" clip-rule="evenodd" d="M327.995 303.857C327.995 354.857 286.65 396.201 235.649 396.201L182.577 396.201C131.576 396.201 90.2309 354.857 90.2309 303.857L90.2309 223.166L23.0866 223.166C10.3362 223.166 -9.75747e-06 212.83 -8.57283e-06 200.078C-7.96887e-06 187.326 10.3362 176.99 23.0865 176.99L235.649 176.99C286.65 176.99 327.995 218.334 327.995 269.335L327.995 303.857ZM235.649 223.166L136.404 223.166L136.404 303.857C136.404 329.354 157.076 350.026 182.577 350.026L235.649 350.026C261.15 350.026 281.822 329.354 281.822 303.857L281.822 269.335C281.822 243.838 261.15 223.166 235.649 223.166ZM304.913 5.35964C317.664 5.35964 328 15.6957 328 28.4473L328 29.8932C328 80.8999 286.655 122.244 235.654 122.244L23.0914 122.244C10.341 122.244 0.00484551 111.908 0.00484495 99.1564C0.00484439 86.4047 10.341 76.0687 23.0914 76.0687L92.4195 76.0687L92.4195 23.0877C92.4195 10.3361 102.755 -4.49159e-06 115.506 -5.04893e-06C128.256 -5.60624e-06 138.593 10.3361 138.593 23.0877L138.593 76.0687L235.654 76.0687C261.154 76.0687 281.827 55.3965 281.827 29.8932L281.827 28.4473C281.827 15.6957 292.163 5.35964 304.913 5.35964Z" fill="#EA394E"/>
</svg>
