<svg width="3028" height="563" viewBox="0 0 3028 563" fill="none" xmlns="http://www.w3.org/2000/svg">
<g clip-path="url(#clip0_124_417)">
<path fill-rule="evenodd" clip-rule="evenodd" d="M447.467 40.3518C447.467 62.3095 429.667 80.1098 407.709 80.1098H347.871H343.006C299.09 80.1098 263.49 115.71 263.49 159.626V525.683C263.49 547.641 245.689 565.441 223.732 565.441C201.774 565.441 183.974 547.641 183.974 525.683V159.626C183.974 130.659 191.718 103.501 205.249 80.1098H39.7546C17.7969 80.1098 -0.00341797 62.3095 -0.00341797 40.3518C-0.00341797 18.394 17.7969 0.59375 39.7546 0.59375H343.006H347.871H407.709C429.667 0.59375 447.467 18.394 447.467 40.3518ZM604.479 199.5C604.479 177.542 586.679 159.742 564.721 159.742H559.856C472.025 159.742 400.824 230.943 400.824 318.774V525.682C400.824 547.64 418.624 565.441 440.582 565.441C462.54 565.441 480.34 547.64 480.34 525.682V318.774C480.34 274.859 515.94 239.258 559.856 239.258H564.721C586.679 239.258 604.479 221.458 604.479 199.5ZM826.643 318.774C826.643 230.943 897.844 159.742 985.675 159.742H1045.12C1132.95 159.742 1204.15 230.943 1204.15 318.774V525.682C1204.15 547.64 1186.35 565.441 1164.39 565.441C1142.43 565.441 1124.63 547.64 1124.63 525.682V318.774C1124.63 274.859 1089.03 239.258 1045.12 239.258H985.675C941.76 239.258 906.159 274.859 906.159 318.774V525.682C906.159 547.64 888.359 565.441 866.401 565.441C844.443 565.441 826.643 547.64 826.643 525.682V318.774ZM713.493 159.742C735.451 159.742 753.251 177.542 753.251 199.5V525.68C753.251 547.637 735.451 565.438 713.493 565.438C691.535 565.438 673.735 547.638 673.735 525.68V199.5C673.735 177.542 691.535 159.742 713.493 159.742ZM2225.01 159.75C2292.69 159.75 2347.56 214.622 2347.56 282.309C2347.56 349.997 2292.69 404.868 2225.01 404.868H2083.16C2090.57 450.83 2130.42 485.933 2178.48 485.933H2307.81C2329.76 485.933 2347.56 503.733 2347.56 525.691C2347.56 547.649 2329.76 565.449 2307.81 565.449H2178.48C2081.23 565.449 2002.4 486.619 2002.4 389.378V318.783C2002.4 230.952 2073.61 159.75 2161.44 159.75H2225.01ZM2081.92 318.783V325.352H2225.01C2248.78 325.352 2268.05 306.081 2268.05 282.309C2268.05 258.537 2248.78 239.267 2225.01 239.267H2161.44C2117.52 239.267 2081.92 274.867 2081.92 318.783ZM2670.43 199.508C2670.43 177.551 2652.63 159.75 2630.67 159.75H2562.5C2474.67 159.75 2403.46 230.952 2403.46 318.783V389.378C2403.46 486.619 2482.29 565.449 2579.54 565.449H2630.67C2652.63 565.449 2670.43 547.649 2670.43 525.691C2670.43 503.733 2652.63 485.933 2630.67 485.933H2579.54C2526.21 485.933 2482.98 442.704 2482.98 389.378V318.783C2482.98 274.867 2518.58 239.267 2562.5 239.267H2630.67C2652.63 239.267 2670.43 221.466 2670.43 199.508ZM2779.46 565.451C2757.5 565.451 2739.7 547.651 2739.7 525.693V40.3591C2739.7 18.4013 2757.5 0.601078 2779.46 0.601074C2801.41 0.60107 2819.21 18.4014 2819.21 40.3591V159.751H2870.78C2958.61 159.751 3029.81 230.952 3029.81 318.783V525.691C3029.81 547.649 3012.01 565.449 2990.05 565.449C2968.09 565.449 2950.29 547.649 2950.29 525.691V318.783C2950.29 274.867 2914.69 239.267 2870.78 239.267H2819.21V525.693C2819.21 547.651 2801.41 565.451 2779.46 565.451Z" fill="white"/>
<path fill-rule="evenodd" clip-rule="evenodd" d="M1432.44 565.442C1344.61 565.442 1273.41 494.241 1273.41 406.41L1273.41 315.014C1273.41 227.183 1344.61 155.982 1432.44 155.982L1571.4 155.982V40.3508C1571.4 18.3931 1589.2 0.59277 1611.16 0.592773C1633.12 0.592775 1650.92 18.393 1650.92 40.3508V406.41C1650.92 494.241 1579.72 565.443 1491.89 565.443L1432.44 565.442ZM1571.4 406.41L1571.4 235.498L1432.44 235.498C1388.53 235.498 1352.93 271.098 1352.93 315.014V406.41C1352.93 450.326 1388.53 485.926 1432.44 485.926H1491.89C1535.8 485.926 1571.4 450.326 1571.4 406.41ZM1946.49 525.693C1946.49 547.651 1928.69 565.451 1906.73 565.451H1904.24C1816.4 565.451 1745.2 494.25 1745.2 406.419V40.3592C1745.2 18.4014 1763 0.601139 1784.96 0.601139C1806.92 0.601139 1824.72 18.4014 1824.72 40.3592V159.751H1915.96C1937.92 159.751 1955.72 177.551 1955.72 199.509C1955.72 221.466 1937.92 239.267 1915.96 239.267H1824.72V406.419C1824.72 450.334 1860.32 485.935 1904.24 485.935H1906.73C1928.69 485.935 1946.49 503.735 1946.49 525.693Z" fill="#EA394E"/>
</g>
<defs>
<clipPath id="clip0_124_417">
<rect width="3027.29" height="562.292" fill="white" transform="translate(0 0.59375)"/>
</clipPath>
</defs>
</svg>
