<svg width="3028" height="563" viewBox="0 0 3028 563" fill="none" xmlns="http://www.w3.org/2000/svg">
<g clip-path="url(#clip0_344_13685)">
<path fill-rule="evenodd" clip-rule="evenodd" d="M447.467 39.758C447.467 61.7158 429.667 79.516 407.709 79.516H347.871H343.006C299.09 79.516 263.49 115.117 263.49 159.032V525.09C263.49 547.047 245.689 564.848 223.732 564.848C201.774 564.848 183.974 547.047 183.974 525.09V159.032C183.974 130.065 191.718 102.908 205.249 79.516H39.7546C17.7969 79.516 -0.00341797 61.7158 -0.00341797 39.758C-0.00341797 17.8003 17.7969 0 39.7546 0H343.006H347.871H407.709C429.667 0 447.467 17.8003 447.467 39.758ZM604.479 198.906C604.479 176.949 586.679 159.148 564.721 159.148H559.856C472.025 159.148 400.824 230.35 400.824 318.18V525.089C400.824 547.047 418.624 564.847 440.582 564.847C462.54 564.847 480.34 547.047 480.34 525.089V318.18C480.34 274.265 515.94 238.664 559.856 238.664H564.721C586.679 238.664 604.479 220.864 604.479 198.906ZM826.643 318.18C826.643 230.35 897.844 159.148 985.675 159.148H1045.12C1132.95 159.148 1204.15 230.349 1204.15 318.18V525.089C1204.15 547.047 1186.35 564.847 1164.39 564.847C1142.43 564.847 1124.63 547.047 1124.63 525.089V318.18C1124.63 274.265 1089.03 238.664 1045.12 238.664H985.675C941.76 238.664 906.159 274.265 906.159 318.18V525.089C906.159 547.047 888.359 564.847 866.401 564.847C844.443 564.847 826.643 547.047 826.643 525.089V318.18ZM713.493 159.148C735.451 159.148 753.251 176.949 753.251 198.906V525.086C753.251 547.044 735.451 564.844 713.493 564.844C691.535 564.844 673.735 547.044 673.735 525.086V198.906C673.735 176.949 691.535 159.148 713.493 159.148ZM2225.01 159.157C2292.69 159.157 2347.56 214.028 2347.56 281.716C2347.56 349.403 2292.69 404.274 2225.01 404.274H2083.16C2090.57 450.236 2130.42 485.339 2178.48 485.339H2307.81C2329.76 485.339 2347.56 503.139 2347.56 525.097C2347.56 547.055 2329.76 564.855 2307.81 564.855H2178.48C2081.23 564.855 2002.4 486.025 2002.4 388.784V318.189C2002.4 230.358 2073.61 159.157 2161.44 159.157H2225.01ZM2081.92 318.189V324.758H2225.01C2248.78 324.758 2268.05 305.487 2268.05 281.716C2268.05 257.944 2248.78 238.673 2225.01 238.673H2161.44C2117.52 238.673 2081.92 274.273 2081.92 318.189ZM2670.43 198.915C2670.43 176.957 2652.63 159.157 2630.67 159.157H2562.5C2474.67 159.157 2403.46 230.358 2403.46 318.189V388.784C2403.46 486.025 2482.29 564.855 2579.54 564.855H2630.67C2652.63 564.855 2670.43 547.055 2670.43 525.097C2670.43 503.139 2652.63 485.339 2630.67 485.339H2579.54C2526.21 485.339 2482.98 442.11 2482.98 388.784V318.189C2482.98 274.273 2518.58 238.673 2562.5 238.673H2630.67C2652.63 238.673 2670.43 220.872 2670.43 198.915ZM2779.46 564.857C2757.5 564.857 2739.7 547.057 2739.7 525.099V39.7653C2739.7 17.8076 2757.5 0.00732806 2779.46 0.00732422C2801.41 0.00732038 2819.21 17.8076 2819.21 39.7653V159.157H2870.78C2958.61 159.157 3029.81 230.358 3029.81 318.189V525.097C3029.81 547.055 3012.01 564.855 2990.05 564.855C2968.09 564.855 2950.29 547.055 2950.29 525.097V318.189C2950.29 274.273 2914.69 238.673 2870.78 238.673H2819.21V525.099C2819.21 547.057 2801.41 564.857 2779.46 564.857Z" fill="#131313"/>
<path fill-rule="evenodd" clip-rule="evenodd" d="M1432.44 564.849C1344.61 564.849 1273.41 493.648 1273.41 405.817L1273.41 314.42C1273.41 226.589 1344.61 155.388 1432.44 155.388L1571.4 155.388V39.757C1571.4 17.7993 1589.2 -0.000980402 1611.16 -0.000976562C1633.12 -0.000974581 1650.92 17.7993 1650.92 39.757V405.817C1650.92 493.648 1579.72 564.849 1491.89 564.849L1432.44 564.849ZM1571.4 405.817L1571.4 234.904L1432.44 234.904C1388.53 234.904 1352.93 270.504 1352.93 314.42V405.817C1352.93 449.732 1388.53 485.333 1432.44 485.333H1491.89C1535.8 485.333 1571.4 449.732 1571.4 405.817ZM1946.49 525.099C1946.49 547.057 1928.69 564.857 1906.73 564.857H1904.24C1816.4 564.857 1745.2 493.656 1745.2 405.825V39.7654C1745.2 17.8077 1763 0.00738922 1784.96 0.00738922C1806.92 0.00738922 1824.72 17.8077 1824.72 39.7654V159.157H1915.96C1937.92 159.157 1955.72 176.957 1955.72 198.915C1955.72 220.873 1937.92 238.673 1915.96 238.673H1824.72V405.825C1824.72 449.741 1860.32 485.341 1904.24 485.341H1906.73C1928.69 485.341 1946.49 503.141 1946.49 525.099Z" fill="#131313"/>
</g>
<defs>
<clipPath id="clip0_344_13685">
<rect width="3027.29" height="562.292" fill="white"/>
</clipPath>
</defs>
</svg>
