<svg width="3028" height="563" viewBox="0 0 3028 563" fill="none" xmlns="http://www.w3.org/2000/svg">
<g clip-path="url(#clip0_344_13677)">
<path fill-rule="evenodd" clip-rule="evenodd" d="M447.467 40.1955C447.467 62.1533 429.667 79.9535 407.709 79.9535H347.871H343.006C299.09 79.9535 263.49 115.554 263.49 159.47V525.527C263.49 547.485 245.689 565.285 223.732 565.285C201.774 565.285 183.974 547.485 183.974 525.527V159.47C183.974 130.503 191.718 103.345 205.249 79.9535H39.7546C17.7969 79.9535 -0.00341797 62.1533 -0.00341797 40.1955C-0.00341797 18.2378 17.7969 0.4375 39.7546 0.4375H343.006H347.871H407.709C429.667 0.4375 447.467 18.2378 447.467 40.1955ZM604.479 199.344C604.479 177.386 586.679 159.586 564.721 159.586H559.856C472.025 159.586 400.824 230.787 400.824 318.618V525.526C400.824 547.484 418.624 565.284 440.582 565.284C462.54 565.284 480.34 547.484 480.34 525.526V318.618C480.34 274.703 515.94 239.102 559.856 239.102H564.721C586.679 239.102 604.479 221.302 604.479 199.344ZM826.643 318.618C826.643 230.787 897.844 159.586 985.675 159.586H1045.12C1132.95 159.586 1204.15 230.787 1204.15 318.618V525.526C1204.15 547.484 1186.35 565.284 1164.39 565.284C1142.43 565.284 1124.63 547.484 1124.63 525.526V318.618C1124.63 274.703 1089.03 239.102 1045.12 239.102H985.675C941.76 239.102 906.159 274.703 906.159 318.618V525.526C906.159 547.484 888.359 565.284 866.401 565.284C844.443 565.284 826.643 547.484 826.643 525.526V318.618ZM713.493 159.586C735.451 159.586 753.251 177.386 753.251 199.344V525.523C753.251 547.481 735.451 565.281 713.493 565.281C691.535 565.281 673.735 547.481 673.735 525.523V199.344C673.735 177.386 691.535 159.586 713.493 159.586ZM2225.01 159.594C2292.69 159.594 2347.56 214.466 2347.56 282.153C2347.56 349.84 2292.69 404.712 2225.01 404.712H2083.16C2090.57 450.674 2130.42 485.777 2178.48 485.777H2307.81C2329.76 485.777 2347.56 503.577 2347.56 525.535C2347.56 547.492 2329.76 565.293 2307.81 565.293H2178.48C2081.23 565.293 2002.4 486.463 2002.4 389.221V318.626C2002.4 230.795 2073.61 159.594 2161.44 159.594H2225.01ZM2081.92 318.626V325.196H2225.01C2248.78 325.196 2268.05 305.925 2268.05 282.153C2268.05 258.381 2248.78 239.11 2225.01 239.11H2161.44C2117.52 239.11 2081.92 274.711 2081.92 318.626ZM2670.43 199.352C2670.43 177.395 2652.63 159.594 2630.67 159.594H2562.5C2474.67 159.594 2403.46 230.795 2403.46 318.626V389.221C2403.46 486.463 2482.29 565.293 2579.54 565.293H2630.67C2652.63 565.293 2670.43 547.492 2670.43 525.535C2670.43 503.577 2652.63 485.777 2630.67 485.777H2579.54C2526.21 485.777 2482.98 442.547 2482.98 389.221V318.626C2482.98 274.711 2518.58 239.11 2562.5 239.11H2630.67C2652.63 239.11 2670.43 221.31 2670.43 199.352ZM2779.46 565.295C2757.5 565.295 2739.7 547.494 2739.7 525.537V40.2028C2739.7 18.2451 2757.5 0.444828 2779.46 0.444824C2801.41 0.44482 2819.21 18.2451 2819.21 40.2028V159.594H2870.78C2958.61 159.594 3029.81 230.795 3029.81 318.626V525.535C3029.81 547.492 3012.01 565.293 2990.05 565.293C2968.09 565.293 2950.29 547.492 2950.29 525.535V318.626C2950.29 274.711 2914.69 239.11 2870.78 239.11H2819.21V525.537C2819.21 547.494 2801.41 565.295 2779.46 565.295Z" fill="#131313"/>
<path fill-rule="evenodd" clip-rule="evenodd" d="M1432.44 565.286C1344.61 565.286 1273.41 494.085 1273.41 406.254L1273.41 314.857C1273.41 227.026 1344.61 155.825 1432.44 155.825L1571.4 155.825V40.1945C1571.4 18.2368 1589.2 0.43652 1611.16 0.436523C1633.12 0.436525 1650.92 18.2368 1650.92 40.1945V406.254C1650.92 494.085 1579.72 565.286 1491.89 565.286L1432.44 565.286ZM1571.4 406.254L1571.4 235.341L1432.44 235.341C1388.53 235.341 1352.93 270.942 1352.93 314.857V406.254C1352.93 450.17 1388.53 485.77 1432.44 485.77H1491.89C1535.8 485.77 1571.4 450.17 1571.4 406.254ZM1946.49 525.537C1946.49 547.494 1928.69 565.295 1906.73 565.295H1904.24C1816.4 565.295 1745.2 494.094 1745.2 406.263V40.2029C1745.2 18.2452 1763 0.444889 1784.96 0.444889C1806.92 0.444889 1824.72 18.2452 1824.72 40.2029V159.594H1915.96C1937.92 159.594 1955.72 177.395 1955.72 199.352C1955.72 221.31 1937.92 239.11 1915.96 239.11H1824.72V406.263C1824.72 450.178 1860.32 485.779 1904.24 485.779H1906.73C1928.69 485.779 1946.49 503.579 1946.49 525.537Z" fill="white"/>
</g>
<defs>
<clipPath id="clip0_344_13677">
<rect width="3027.29" height="562.292" fill="white" transform="translate(0 0.4375)"/>
</clipPath>
</defs>
</svg>
