<svg width="3028" height="563" viewBox="0 0 3028 563" fill="none" xmlns="http://www.w3.org/2000/svg">
<g clip-path="url(#clip0_344_13669)">
<path fill-rule="evenodd" clip-rule="evenodd" d="M447.467 39.9143C447.467 61.872 429.667 79.6723 407.709 79.6723H347.871H343.006C299.09 79.6723 263.49 115.273 263.49 159.188V525.246C263.49 547.204 245.689 565.004 223.732 565.004C201.774 565.004 183.974 547.204 183.974 525.246V159.188C183.974 130.222 191.718 103.064 205.249 79.6723H39.7546C17.7969 79.6723 -0.00341797 61.872 -0.00341797 39.9143C-0.00341797 17.9565 17.7969 0.15625 39.7546 0.15625H343.006H347.871H407.709C429.667 0.15625 447.467 17.9565 447.467 39.9143ZM604.479 199.063C604.479 177.105 586.679 159.305 564.721 159.305H559.856C472.025 159.305 400.824 230.506 400.824 318.337V525.245C400.824 547.203 418.624 565.003 440.582 565.003C462.54 565.003 480.34 547.203 480.34 525.245V318.337C480.34 274.421 515.94 238.821 559.856 238.821H564.721C586.679 238.821 604.479 221.02 604.479 199.063ZM826.643 318.337C826.643 230.506 897.844 159.305 985.675 159.305H1045.12C1132.95 159.305 1204.15 230.506 1204.15 318.337V525.245C1204.15 547.203 1186.35 565.003 1164.39 565.003C1142.43 565.003 1124.63 547.203 1124.63 525.245V318.337C1124.63 274.421 1089.03 238.821 1045.12 238.821H985.675C941.76 238.821 906.159 274.421 906.159 318.337V525.245C906.159 547.203 888.359 565.003 866.401 565.003C844.443 565.003 826.643 547.203 826.643 525.245V318.337ZM713.493 159.305C735.451 159.305 753.251 177.105 753.251 199.063V525.242C753.251 547.2 735.451 565 713.493 565C691.535 565 673.735 547.2 673.735 525.242V199.063C673.735 177.105 691.535 159.305 713.493 159.305ZM2225.01 159.313C2292.69 159.313 2347.56 214.184 2347.56 281.872C2347.56 349.559 2292.69 404.431 2225.01 404.431H2083.16C2090.57 450.392 2130.42 485.495 2178.48 485.495H2307.81C2329.76 485.495 2347.56 503.296 2347.56 525.253C2347.56 547.211 2329.76 565.011 2307.81 565.011H2178.48C2081.23 565.011 2002.4 486.182 2002.4 388.94V318.345C2002.4 230.514 2073.61 159.313 2161.44 159.313H2225.01ZM2081.92 318.345V324.915H2225.01C2248.78 324.915 2268.05 305.644 2268.05 281.872C2268.05 258.1 2248.78 238.829 2225.01 238.829H2161.44C2117.52 238.829 2081.92 274.43 2081.92 318.345ZM2670.43 199.071C2670.43 177.113 2652.63 159.313 2630.67 159.313H2562.5C2474.67 159.313 2403.46 230.514 2403.46 318.345V388.94C2403.46 486.182 2482.29 565.011 2579.54 565.011H2630.67C2652.63 565.011 2670.43 547.211 2670.43 525.253C2670.43 503.296 2652.63 485.495 2630.67 485.495H2579.54C2526.21 485.495 2482.98 442.266 2482.98 388.94V318.345C2482.98 274.43 2518.58 238.829 2562.5 238.829H2630.67C2652.63 238.829 2670.43 221.029 2670.43 199.071ZM2779.46 565.013C2757.5 565.013 2739.7 547.213 2739.7 525.255V39.9216C2739.7 17.9638 2757.5 0.163578 2779.46 0.163574C2801.41 0.16357 2819.21 17.9639 2819.21 39.9216V159.313H2870.78C2958.61 159.313 3029.81 230.514 3029.81 318.345V525.253C3029.81 547.211 3012.01 565.011 2990.05 565.011C2968.09 565.011 2950.29 547.211 2950.29 525.253V318.345C2950.29 274.43 2914.69 238.829 2870.78 238.829H2819.21V525.255C2819.21 547.213 2801.41 565.013 2779.46 565.013Z" fill="white"/>
<path fill-rule="evenodd" clip-rule="evenodd" d="M1432.44 565.005C1344.61 565.005 1273.41 493.804 1273.41 405.973L1273.41 314.576C1273.41 226.745 1344.61 155.544 1432.44 155.544L1571.4 155.544V39.9133C1571.4 17.9556 1589.2 0.15527 1611.16 0.155273C1633.12 0.155275 1650.92 17.9555 1650.92 39.9133V405.973C1650.92 493.804 1579.72 565.005 1491.89 565.005L1432.44 565.005ZM1571.4 405.973L1571.4 235.06L1432.44 235.06C1388.53 235.06 1352.93 270.661 1352.93 314.576V405.973C1352.93 449.888 1388.53 485.489 1432.44 485.489H1491.89C1535.8 485.489 1571.4 449.888 1571.4 405.973ZM1946.49 525.255C1946.49 547.213 1928.69 565.013 1906.73 565.013H1904.24C1816.4 565.013 1745.2 493.812 1745.2 405.981V39.9217C1745.2 17.9639 1763 0.163639 1784.96 0.163639C1806.92 0.163639 1824.72 17.9639 1824.72 39.9217V159.313H1915.96C1937.92 159.313 1955.72 177.113 1955.72 199.071C1955.72 221.029 1937.92 238.829 1915.96 238.829H1824.72V405.981C1824.72 449.897 1860.32 485.497 1904.24 485.497H1906.73C1928.69 485.497 1946.49 503.298 1946.49 525.255Z" fill="#131313"/>
</g>
<defs>
<clipPath id="clip0_344_13669">
<rect width="3027.29" height="562.292" fill="white" transform="translate(0 0.15625)"/>
</clipPath>
</defs>
</svg>
